<svg width="1920" height="1303" fill="none" xmlns="http://www.w3.org/2000/svg"><path fill-rule="evenodd" clip-rule="evenodd" d="M154.132 118.21c.57.404 9.889 5.606 16.757 7.883 5.21 1.724 8.823 1.989 11.856 1.406.332.508.722.813 1.165.717 0 0 1.065-.014 1.785-1.585a54.91 54.91 0 001.001-.4c.631.048 1.396.026 2.333-.094 1.323-.197 5.519-1.976 5.052-3.44l-.003-.009 1.904-.974c.432.715.934 1.17 1.468 1.016 0 0 1.517-.112 1.894-2.84.492-.363.974-.786 1.442-1.267 1.5-.211 2.95-.686 2.913-1.54 0 0 .112-.671-.613-1.395.462-.711.906-1.458 1.335-2.236.797-.304 1.785-1.012 2.995-2.433.843-1.029 2.678-5.061 1.388-5.881 0 0-.194-.185-.572-.285.533-1.44.986-2.757 1.355-3.827 1.488-1.006 3.45-2.813 2.748-3.746 0 0-.269-.564-1.189-.804.134-.457.252-.91.362-1.359.91-.317 1.961-1.345 2.009-4.872-.006-.859-.493-2.964-1.247-4.297a44.007 44.007 0 00-.376-3.572c.92-.267 1.606-.676 1.581-1.264 0 0 .22-1.336-2.002-2.28-.053-.645-.106-1.37-.155-2.146.651-.592 1.325-1.696 1.887-3.717.331-1.29.307-5.611-1.156-5.762 0 0-.57-.173-1.295.298-.049-.737-.097-1.441-.146-2.084 1.116-.26 2.012-.697 1.983-1.369 0 0 .251-1.496-2.414-2.441-.06-.358-.125-.74-.196-1.136.323-.74.545-1.814.567-3.394-.009-1.234-1.012-5.05-2.372-5.434l-.291-1.291c.995-.263 1.756-.687 1.728-1.305 0 0 .236-1.416-2.205-2.364.011-.23.016-.47.017-.723.032-.323.296-4.581-1.854-5.005l-.092-.338c-.06-.2-.119-.406-.178-.613.228-.708.381-1.667.399-2.956-.008-1.326-1.167-5.619-2.673-5.463 0 0-.455-.038-.962.338-.328-.7-.667-1.417-1.023-2.15.74-.262 1.258-.64 1.235-1.15 0 0 .291-1.75-3.13-2.66l-.662-1.296c.695-.63 1.289-1.973-.364-5.384-.611-1.2-3.566-4.606-4.799-3.825 0 0-.069.025-.171.098a24.907 24.907 0 00-1.544-1.755c.17-.176.264-.37.253-.594 0 0 .357-2.159-4.409-2.93-1.889-1.3-3.453-2.047-4.178-2.505-.794-.496-2.905-.98-5.281-1.41-.182-.712-1.054-2.07-4.942-2.563-.324-.074-4.728-.89-5.429 1.26-.453.022-.927.064-1.408.115-1.158-.74-2.682-1.37-3.659-.43a2.458 2.458 0 00-.337 1.067c-.774.156-1.522.321-2.213.481.06-.37.004-.683-.216-.894 0 0-1.332-1.946-5.474 1.243-.177.112-1.759 1.186-2.625 2.499-1.017.423-2.079.88-3.146 1.337-1.385-.172-4.194-.286-4.688 1.441.004.166.015.356.065.56l-.581.25a.754.754 0 00-.176-.263s-1.332-1.944-5.474 1.244c-.16.1-1.45.975-2.336 2.098l-.915.327c-1.044-.556-2.243-.865-3.06-.08a2.41 2.41 0 00-.333 1.46 7.652 7.652 0 00-1.05.627c-.135.104-.3.213-.489.334-1.472-.128-3.806-.073-4.252 1.487.003.222.029.49.129.775l-.516.268c-1.263-.18-4.419-.429-4.945 1.41.004.304.049.692.277 1.1-.621.362-1.132.69-1.465.957-.656-.369-2.178-.644-5.071 1.582-.225.142-2.726 1.842-3.127 3.61-1.026-.53-2.19-.806-2.988-.04-.231.409-.483 1.018-.25 1.91-.892.512-1.776 1.01-2.623 1.488-1.448-.15-3.99-.165-4.456 1.47.006.343.06.791.375 1.26a19.172 19.172 0 00-2.194 2.39c-.677-.153-1.336-.09-1.845.4-.274.483-.581 1.257-.061 2.451-.64 1.096-1.137 2.086-1.525 2.815-.182-.346-.422-.578-.73-.626 0 0-2.24-.797-3.517 4.239-.07.194-.642 1.974-.522 3.543-.377.59-.744 1.173-1.088 1.733-.825-.296-1.664-.328-2.283.268-.331.585-.707 1.587.376 3.253-.291.747-.55 1.617-.766 2.522-.896.18-1.674.584-1.911 1.417.007.552.145 1.377 1.28 2.118-.09.72-.151 1.406-.182 2.008-.581.538-1.249 1.825-.731 4.888.024.31.485 4.532 2.674 5.014.47 1.872.843 3.319.843 3.319l1.924 2.37c-.17 1.388-.06 3.04 1.197 3.63.399.06.94.08 1.529-.261l.893 1.111c-.428.395-.712.885-.72 1.492.205.734.756 1.885 3.45 1.916 1.474 1.852 2.792 3.525 3.57 4.561 2.704 3.598 5.705 3.972 8.986 5.325 3.282 1.35 8.611 4.15 10.208 4.333 1.595.186 8.634 3.445 16.494 7.242 7.865 3.802 17.619 8.583 18.189 8.983z" fill="#F3F2E9"/><path fill-rule="evenodd" clip-rule="evenodd" d="M153.936 21.657l.001-.008c-.024.24-.068.503-.141.776l.829-.128c-.414-.168-.672-.393-.689-.64zm-.37-1.235c.29.115.418.557.376 1.151.086-.475 1.123-.843 2.416-.835.355 0 .691.032.996.082-.233-.377-.299-.714-.139-.928.329-.45 1.501-.21 2.617.538.423.282.775.592 1.034.899l.725-.338c-.6-.097-1.005-.295-1.052-.563-.081-.468.992-.975 2.395-1.128.144-.014.285-.028.42-.033a.475.475 0 01-.133-.289c-.029-.524 1.083-.948 2.494-.946.19.001.378.008.558.023l-2.871-1.15c-.505.893-1.136 1.434-1.558 1.274-.245-.095-.379-.418-.391-.87-.12.085-.248.165-.381.246-1.165.695-2.345.894-2.638.441-.188-.284.021-.762.498-1.25a5.11 5.11 0 01-1.185-.22 5.49 5.49 0 01-.214.629c-.518 1.293-1.355 2.177-1.869 1.978-.189-.073-.306-.278-.359-.57-.422.572-.876.885-1.202.757a.51.51 0 01-.259-.256c-.438.171-2.528 2.357-2.236 2.806.141.221.045.562-.229.931l.199-.032c.042-.128.09-.26.143-.392.506-1.28 1.334-2.152 1.845-1.955zm40.718 81.966l.006.011c-.048-.3-.07-.634-.065-.991l-1.001.418c.573.074.967.265 1.06.562zm.849 1.388c-.402-.049-.692-.547-.829-1.284.039.609-1.138 1.373-2.741 1.758a8.23 8.23 0 01-1.245.2c.405.381.588.764.46 1.068-.263.633-1.755.691-3.329.132a6.494 6.494 0 01-1.516-.758l-.748.611c.74-.063 1.284.053 1.42.354.24.532-.867 1.435-2.467 2.007-.16.058-.319.113-.478.157.126.086.21.184.247.301.2.599-.958 1.394-2.574 1.771-.22.05-.436.09-.646.123l3.656.552c.31-1.167.879-1.967 1.422-1.897.32.041.576.379.735.904.114-.134.237-.265.368-.393 1.169-1.14 2.526-1.709 3.021-1.26.315.286.205.908-.214 1.618a6.494 6.494 0 011.496-.075 6.78 6.78 0 01.066-.804c.233-1.681.987-2.982 1.683-2.895.252.033.464.242.617.578.346-.813.817-1.321 1.261-1.267.152.017.29.1.405.232.497-.342 2.48-3.662 1.974-4.125-.257-.228-.235-.679.001-1.224l-.248.104c-.01.173-.032.352-.058.529-.252 1.741-1.03 3.067-1.739 2.983z" fill="#D8D6CE"/><path fill-rule="evenodd" clip-rule="evenodd" d="M1880.93 557.242c.57.404 9.89 5.605 16.76 7.883 5.21 1.724 8.82 1.988 11.86 1.405.33.509.72.814 1.16.717 0 0 1.07-.014 1.79-1.584.33-.131.67-.265 1-.4.63.048 1.39.025 2.33-.094 1.32-.198 5.52-1.976 5.05-3.44v-.009l1.9-.974c.44.715.94 1.17 1.47 1.016 0 0 1.52-.112 1.89-2.84.5-.363.98-.786 1.45-1.267 1.5-.212 2.95-.687 2.91-1.541 0 0 .11-.67-.61-1.395.46-.71.9-1.458 1.33-2.235.8-.305 1.79-1.013 3-2.433.84-1.029 2.67-5.062 1.39-5.882 0 0-.2-.184-.58-.284.54-1.441.99-2.757 1.36-3.827 1.49-1.007 3.45-2.814 2.75-3.747 0 0-.27-.564-1.19-.804.13-.457.25-.909.36-1.358.91-.317 1.96-1.345 2.01-4.872-.01-.859-.49-2.964-1.25-4.297a44.277 44.277 0 00-.37-3.573c.92-.266 1.6-.676 1.58-1.263 0 0 .22-1.337-2.01-2.281-.05-.645-.1-1.37-.15-2.146.65-.592 1.32-1.695 1.89-3.717.33-1.289.3-5.611-1.16-5.762 0 0-.57-.173-1.29.298-.05-.737-.1-1.44-.15-2.084 1.12-.259 2.01-.696 1.98-1.368 0 0 .25-1.496-2.41-2.442-.06-.357-.13-.739-.2-1.135.33-.74.55-1.815.57-3.394-.01-1.235-1.01-5.051-2.37-5.434l-.29-1.292c.99-.263 1.75-.687 1.72-1.305 0 0 .24-1.416-2.2-2.364.01-.229.01-.47.02-.722.03-.323.29-4.582-1.86-5.005l-.09-.338-.18-.613c.23-.708.38-1.667.4-2.957-.01-1.325-1.17-5.618-2.67-5.463 0 0-.46-.038-.96.339-.33-.701-.67-1.417-1.03-2.15.74-.263 1.26-.64 1.24-1.15 0 0 .29-1.75-3.13-2.66l-.66-1.297c.69-.629 1.29-1.973-.37-5.383-.61-1.2-3.56-4.607-4.8-3.826 0 0-.07.025-.17.099-.51-.633-1.02-1.22-1.54-1.756.17-.175.26-.37.25-.594 0 0 .36-2.158-4.41-2.929-1.89-1.301-3.45-2.048-4.18-2.505-.79-.496-2.9-.98-5.28-1.411-.18-.711-1.05-2.069-4.94-2.562-.32-.075-4.73-.89-5.43 1.26-.45.022-.92.064-1.41.114-1.15-.74-2.68-1.369-3.65-.429-.15.263-.31.611-.34 1.066-.78.157-1.52.322-2.22.482.07-.37.01-.684-.21-.895 0 0-1.33-1.945-5.48 1.244-.17.111-1.75 1.185-2.62 2.498-1.02.424-2.08.881-3.15 1.338-1.38-.172-4.19-.286-4.68 1.441 0 .165.01.356.06.56l-.58.25a.757.757 0 00-.18-.264s-1.33-1.944-5.47 1.244c-.16.101-1.45.976-2.34 2.098l-.91.327c-1.04-.556-2.24-.865-3.06-.08a2.4 2.4 0 00-.33 1.461c-.41.203-.76.414-1.05.627-.14.104-.3.212-.49.333-1.47-.128-3.81-.072-4.26 1.488.01.222.03.49.13.775l-.51.268c-1.27-.181-4.42-.429-4.95 1.409.01.304.05.693.28 1.1-.62.362-1.13.691-1.46.958-.66-.369-2.18-.645-5.08 1.581-.22.142-2.72 1.843-3.12 3.61-1.03-.529-2.19-.805-2.99-.039-.23.408-.48 1.018-.25 1.91-.89.511-1.78 1.009-2.62 1.488-1.45-.151-3.99-.166-4.46 1.469.01.343.06.792.38 1.26-.83.754-1.56 1.568-2.2 2.391-.68-.153-1.33-.09-1.84.4-.28.483-.59 1.257-.06 2.451-.65 1.095-1.14 2.085-1.53 2.814-.18-.345-.42-.578-.73-.625 0 0-2.24-.798-3.52 4.238-.07.195-.64 1.974-.52 3.544-.38.589-.74 1.172-1.09 1.732-.82-.295-1.66-.328-2.28.269-.33.584-.71 1.587.38 3.253-.29.746-.55 1.616-.77 2.522-.9.179-1.67.584-1.91 1.416.01.552.14 1.377 1.28 2.118-.09.721-.15 1.407-.18 2.009-.58.538-1.25 1.824-.73 4.887.02.31.48 4.533 2.67 5.015.47 1.871.84 3.318.84 3.318l1.93 2.371c-.17 1.387-.06 3.039 1.19 3.63.4.059.94.08 1.53-.261l.9 1.111c-.43.395-.72.884-.72 1.491.2.735.75 1.886 3.45 1.917 1.47 1.851 2.79 3.525 3.57 4.561 2.7 3.597 5.7 3.972 8.98 5.324 3.28 1.351 8.61 4.15 10.21 4.334 1.6.185 8.63 3.445 16.49 7.241 7.87 3.803 17.62 8.584 18.19 8.984z" fill="#F3F2E9"/><path fill-rule="evenodd" clip-rule="evenodd" d="M1880.74 460.688v-.007c-.03.239-.07.502-.14.775l.83-.127c-.42-.169-.68-.394-.69-.641zm-.37-1.235c.29.116.41.557.37 1.152.09-.475 1.13-.843 2.42-.836.35.001.69.032.99.083-.23-.377-.29-.715-.13-.928.32-.45 1.5-.21 2.61.537.42.283.78.593 1.04.899l.72-.338c-.6-.096-1-.294-1.05-.562-.08-.469.99-.975 2.39-1.129.15-.013.29-.028.42-.032a.504.504 0 01-.13-.289c-.03-.525 1.08-.948 2.5-.947.19.002.37.009.55.023l-2.87-1.15c-.5.894-1.13 1.434-1.56 1.274-.24-.094-.38-.417-.39-.87-.12.085-.24.165-.38.247-1.16.695-2.34.894-2.64.441-.18-.285.02-.763.5-1.25a5.115 5.115 0 01-1.18-.22 5.54 5.54 0 01-.22.628c-.51 1.293-1.35 2.178-1.87 1.978-.18-.072-.3-.278-.35-.57-.43.573-.88.886-1.21.758-.11-.044-.19-.134-.26-.257-.43.172-2.52 2.357-2.23 2.807.14.221.04.562-.23.931l.2-.032c.04-.128.09-.261.14-.392.51-1.28 1.34-2.153 1.85-1.956zm40.71 81.967l.01.01a5.18 5.18 0 01-.06-.991l-1.01.418c.58.075.97.265 1.06.563zm.85 1.387c-.4-.049-.69-.547-.83-1.284.04.609-1.13 1.373-2.74 1.759a8.13 8.13 0 01-1.24.2c.4.38.59.764.46 1.068-.26.633-1.76.69-3.33.132a6.608 6.608 0 01-1.52-.758l-.74.611c.74-.064 1.28.053 1.42.354.24.531-.87 1.434-2.47 2.006-.16.059-.32.114-.48.158a.58.58 0 01.25.301c.2.599-.96 1.393-2.58 1.77-.22.05-.43.09-.64.123l3.65.552c.31-1.166.88-1.966 1.43-1.897.32.042.57.379.73.904.11-.134.24-.265.37-.393 1.17-1.139 2.52-1.708 3.02-1.26.31.286.21.909-.21 1.619.54-.087 1.06-.11 1.49-.075.01-.257.03-.525.07-.804.23-1.682.98-2.982 1.68-2.895.25.032.47.242.62.577.34-.813.81-1.321 1.26-1.267.15.018.29.101.4.232.5-.342 2.48-3.662 1.98-4.125-.26-.228-.24-.679 0-1.224l-.25.105c-.01.172-.03.351-.06.529-.25 1.74-1.03 3.067-1.74 2.982z" fill="#D8D6CE"/><path fill-rule="evenodd" clip-rule="evenodd" d="M1703.88 144.031c.7.033 11.35-.609 18.37-2.393 5.31-1.356 8.5-3.081 10.74-5.207.55.25 1.05.296 1.37-.024 0 0 .89-.586.65-2.296.21-.293.42-.585.62-.877.56-.299 1.19-.731 1.92-1.337 1.01-.879 3.58-4.639 2.4-5.62l-.01-.007 1.08-1.846c.75.369 1.42.482 1.79.064 0 0 1.21-.912.06-3.412.22-.571.4-1.187.53-1.845 1.15-.987 2.12-2.169 1.63-2.868 0 0-.27-.624-1.27-.844 0-.848-.03-1.717-.08-2.603.5-.686.95-1.815 1.21-3.664.15-1.321-.48-5.706-2-5.701 0 0-.27-.051-.64.068-.33-1.501-.65-2.854-.92-3.954.71-1.65 1.39-4.229.29-4.636 0 0-.53-.33-1.43-.037a26.57 26.57 0 00-.43-1.34c.6-.757.93-2.189-.93-5.186-.47-.72-2.01-2.23-3.37-2.947a43.056 43.056 0 00-2.24-2.806c.63-.72.99-1.436.65-1.917 0 0-.53-1.244-2.92-.842-.39-.515-.82-1.096-1.28-1.723.23-.85.2-2.143-.42-4.148-.41-1.265-2.76-4.892-4.08-4.23 0 0-.57.16-.93.949a94.06 94.06 0 00-1.24-1.677c.8-.82 1.32-1.671.93-2.222 0 0-.6-1.395-3.35-.755-.24-.269-.5-.555-.78-.85-.12-.798-.52-1.823-1.35-3.165-.67-1.035-3.57-3.709-4.93-3.299l-.94-.93c.7-.759 1.11-1.526.76-2.032 0 0-.57-1.319-3.14-.802-.11-.199-.24-.404-.37-.617-.15-.29-2.22-4.02-4.26-3.217l-.26-.235c-.16-.137-.32-.279-.48-.42-.19-.72-.58-1.61-1.26-2.706-.72-1.112-4.01-4.103-5.19-3.16 0 0-.41.213-.63.803-.66-.413-1.33-.834-2.02-1.259.48-.62.71-1.217.42-1.635 0 0-.7-1.63-4.07-.553l-1.26-.735c.25-.904.02-2.357-3.21-4.339-1.16-.68-5.48-1.957-6.1-.635 0 0-.05.058-.09.175a24.52 24.52 0 00-2.25-.646c.05-.24.02-.454-.11-.637 0 0-.86-2.01-5.29-.09-2.29-.078-4.01.136-4.87.142-.93.01-2.97.74-5.21 1.658-.53-.501-2-1.175-5.54.505-.31.112-4.46 1.8-3.89 3.989-.37.262-.75.552-1.13.854-1.37.001-3 .292-3.31 1.61.01.303.07.68.29 1.08-.57.55-1.11 1.092-1.61 1.6-.14-.344-.36-.579-.66-.638 0 0-2.17-.92-3.94 3.998-.09.19-.84 1.947-.86 3.52-.63.904-1.28 1.862-1.93 2.822-1.26.602-3.69 2.02-3.18 3.74.1.138.21.292.36.437l-.35.524a.83.83 0 00-.29-.127s-2.17-.92-3.94 3.998c-.08.17-.7 1.603-.84 3.027l-.59.768c-1.18.095-2.36.48-2.63 1.582.03.385.11.89.51 1.41-.23.388-.41.757-.54 1.094-.06.16-.14.34-.24.544-1.31.686-3.24 1.99-2.78 3.546.13.184.29.397.53.582l-.29.504c-1.16.53-3.95 2.02-3.41 3.853.17.254.42.557.83.777-.33.64-.58 1.192-.72 1.596-.75.044-2.18.632-3.42 4.066-.11.24-1.3 3.021-.68 4.726-1.15.108-2.28.503-2.54 1.578.02.468.14 1.117.82 1.743-.48.912-.96 1.808-1.41 2.667-1.3.654-3.45 2.011-2.96 3.64.19.286.48.634.99.859a19.51 19.51 0 00-.56 3.197c-.65.235-1.17.643-1.33 1.33.03.555.18 1.373 1.26 2.098.06 1.268.17 2.369.24 3.192-.34-.192-.67-.259-.95-.133 0 0-2.32.536-.68 5.466.04.202.52 2.009 1.47 3.266 0 .699 0 1.389.02 2.046-.86.196-1.58.62-1.78 1.456.03.671.26 1.718 2.07 2.538.15.785.41 1.657.71 2.537-.66.633-1.09 1.394-.84 2.223.3.461.86 1.082 2.22 1.094.31.656.63 1.266.93 1.79-.2.766-.07 2.21 2.01 4.511.19.248 2.86 3.556 4.96 2.782 1.4 1.323 2.5 2.341 2.5 2.341l2.9.96c.6 1.259 1.58 2.592 2.96 2.412.37-.165.84-.44 1.15-1.044l1.35.454c-.15.563-.12 1.128.2 1.644.57.508 1.65 1.181 3.94-.245 2.24.765 4.25 1.464 5.46 1.917 4.22 1.573 6.95.271 10.44-.359 3.49-.631 9.49-1.145 10.93-1.852 1.45-.703 9.13-1.752 17.8-2.791 8.67-1.037 19.47-2.267 20.16-2.237z" fill="#F3F2E9"/><path fill-rule="evenodd" clip-rule="evenodd" d="M1651.67 62.81v-.007c.11.215.21.46.3.73l.63-.554c-.44.08-.78.03-.93-.169zm-.97-.84c.3-.06.65.244.93.767-.18-.447.49-1.316 1.59-2.006.3-.191.6-.346.88-.468-.4-.191-.64-.44-.62-.706.04-.556 1.15-.986 2.5-.958.51.01.97.081 1.35.2l.43-.676c-.56.242-1 .294-1.19.094-.32-.352.31-1.356 1.41-2.242.12-.089.23-.177.34-.254a.472.472 0 01-.27-.172c-.31-.426.4-1.382 1.59-2.141.16-.102.32-.197.48-.282l-3.04.58c.06 1.024-.18 1.82-.62 1.912-.26.053-.55-.147-.8-.522-.05.136-.12.273-.19.413-.6 1.214-1.49 2.017-1.98 1.793-.31-.138-.4-.653-.26-1.32-.39.212-.77.366-1.11.453a6 6 0 01.16.644c.26 1.369.03 2.565-.51 2.674-.2.04-.41-.07-.61-.287-.05.71-.26 1.218-.61 1.286a.5.5 0 01-.35-.076c-.28.38-.86 3.348-.37 3.57.24.11.34.448.31.907l.15-.135c-.04-.13-.07-.268-.09-.407-.27-1.35-.04-2.532.5-2.641zm78.47 47.091l.01.006a6.06 6.06 0 01-.59-.8l-.61.892c.52-.246.95-.298 1.19-.098zm1.47.711c-.37.175-.88-.088-1.39-.634.36.492-.22 1.77-1.37 2.958-.3.321-.63.603-.94.84.55.102.91.326.97.652.12.674-1.11 1.527-2.74 1.905a6.46 6.46 0 01-1.68.179l-.3.917c.59-.452 1.11-.647 1.38-.467.49.319.05 1.676-.99 3.02-.11.136-.21.268-.32.391.15.004.28.041.37.12.49.397-.06 1.69-1.21 2.879-.16.16-.32.311-.48.451l3.38-1.505c-.37-1.15-.32-2.131.17-2.364.29-.138.69.008 1.11.365a3.4 3.4 0 01.1-.53c.37-1.59 1.2-2.8 1.86-2.69.42.072.66.655.69 1.48.42-.369.84-.666 1.22-.871a6.088 6.088 0 01-.37-.712c-.72-1.542-.78-3.044-.15-3.346.23-.108.52-.046.83.154-.14-.871-.02-1.553.38-1.747a.65.65 0 01.47-.023c.23-.556.11-4.421-.56-4.538-.34-.054-.57-.445-.66-1.031l-.15.221c.08.151.16.313.23.477.73 1.602.79 3.139.15 3.449z" fill="#D8D6CE"/><path fill-rule="evenodd" clip-rule="evenodd" d="M1736.9 1296.15c.67.22 11.11 2.42 18.34 2.56 5.49.1 9.02-.72 11.74-2.18.47.39.93.56 1.33.34 0 0 1.01-.33 1.23-2.04.29-.23.56-.45.84-.68.62-.14 1.34-.39 2.2-.78 1.2-.58 4.68-3.53 3.8-4.79v-.01l1.53-1.49c.62.55 1.24.84 1.7.53 0 0 1.42-.55.97-3.27.36-.49.69-1.04 1-1.64 1.37-.64 2.61-1.53 2.32-2.33 0 0-.09-.68-1-1.15.23-.82.43-1.66.61-2.53.67-.53 1.41-1.5 2.14-3.22.5-1.23 1.06-5.62-.42-6.02 0 0-.24-.12-.63-.11.08-1.53.12-2.92.16-4.05 1.12-1.41 2.46-3.71 1.51-4.4 0 0-.42-.46-1.37-.41-.01-.48-.03-.95-.06-1.41.77-.57 1.47-1.86.47-5.25-.26-.81-1.35-2.68-2.46-3.73-.49-1.28-.99-2.38-1.42-3.3.8-.53 1.33-1.12 1.13-1.67 0 0-.18-1.35-2.59-1.59-.24-.6-.5-1.27-.78-2 .44-.76.76-2.01.7-4.11-.07-1.33-1.37-5.45-2.82-5.16 0 0-.59 0-1.15.67-.26-.69-.51-1.35-.75-1.95.99-.58 1.71-1.26 1.48-1.89 0 0-.2-1.51-3.03-1.62-.16-.32-.33-.67-.52-1.02.09-.81-.02-1.9-.46-3.41-.38-1.18-2.47-4.53-3.88-4.49l-.66-1.15c.87-.54 1.47-1.17 1.26-1.76 0 0-.2-1.42-2.81-1.6-.06-.22-.12-.45-.2-.69-.06-.32-1.07-4.47-3.25-4.23l-.19-.3c-.12-.17-.23-.35-.35-.53.01-.74-.13-1.71-.5-2.94-.4-1.27-2.78-5.02-4.17-4.43 0 0-.45.1-.82.61-.52-.57-1.06-1.15-1.62-1.75.63-.47 1.02-.98.84-1.46 0 0-.24-1.76-3.78-1.61l-1.01-1.04c.47-.81.64-2.27-1.95-5.04-.94-.96-4.77-3.34-5.72-2.23 0 0-.05.05-.13.15-.67-.46-1.34-.86-2-1.22.11-.22.15-.43.07-.64 0 0-.3-2.17-5.08-1.49-2.19-.68-3.9-.93-4.73-1.15-.91-.24-3.07-.08-5.46.22-.39-.63-1.63-1.67-5.49-.98-.33.02-4.77.55-4.81 2.81-.42.16-.86.34-1.31.53-1.32-.37-2.96-.51-3.62.67-.06.3-.11.68 0 1.12-.7.38-1.36.76-1.97 1.12-.06-.37-.2-.66-.47-.79 0 0-1.85-1.46-4.86 2.81-.14.16-1.33 1.65-1.77 3.17-.84.7-1.72 1.45-2.61 2.21-1.37.24-4.09.97-4.04 2.76.05.16.12.34.22.52l-.48.41a.778.778 0 00-.24-.2s-1.85-1.46-4.86 2.81c-.12.15-1.1 1.36-1.61 2.7l-.78.58c-1.16-.22-2.4-.16-2.94.84-.08.37-.14.88.11 1.49-.32.31-.6.62-.81.91-.1.14-.23.29-.37.46-1.45.32-3.66 1.06-3.62 2.69.07.21.17.46.35.7l-.41.41c-1.26.2-4.35.9-4.31 2.81.1.29.26.65.6.97-.49.53-.88.99-1.12 1.35-.74-.16-2.27.03-4.37 3.01-.17.2-2.06 2.57-1.92 4.38-1.13-.2-2.33-.12-2.86.85-.1.46-.16 1.11.33 1.89-.7.76-1.4 1.5-2.07 2.2-1.43.29-3.86 1.03-3.82 2.73.11.33.3.74.74 1.09-.57.97-1.02 1.96-1.39 2.94-.69.05-1.3.31-1.64.93-.12.54-.19 1.37.67 2.35-.29 1.24-.47 2.33-.62 3.14-.28-.27-.58-.42-.89-.38 0 0-2.37-.09-2.1 5.09-.01.21-.03 2.08.55 3.54-.18.68-.36 1.34-.52 1.98-.88-.04-1.69.18-2.1.93-.14.66-.2 1.73 1.32 3-.05.8-.04 1.71.02 2.64-.8.43-1.42 1.05-1.4 1.91.17.53.54 1.28 1.85 1.65.12.71.27 1.39.42 1.97-.4.69-.65 2.11.75 4.88.12.29 1.81 4.19 4.04 4 1.01 1.65 1.79 2.92 1.79 2.92l2.54 1.69c.25 1.38.85 2.92 2.22 3.11.4-.06.93-.2 1.39-.7l1.18.79c-.29.51-.42 1.06-.25 1.64.42.64 1.29 1.58 3.87.81 1.96 1.33 3.71 2.54 4.76 3.29 3.65 2.64 6.63 2.11 10.16 2.42 3.54.32 9.46 1.41 11.04 1.11 1.57-.29 9.26.73 17.9 2.02 8.64 1.3 19.37 2.97 20.03 3.18z" fill="#F3F2E9"/><path fill-rule="evenodd" clip-rule="evenodd" d="M1708.06 1204.01v-.01c.05.24.08.5.09.78l.76-.36c-.45-.04-.76-.18-.85-.41zm-.72-1.07c.31.02.56.41.7.99-.06-.48.82-1.14 2.06-1.52.34-.1.67-.17.98-.22-.34-.29-.5-.59-.41-.84.18-.53 1.37-.65 2.66-.26.48.14.91.33 1.25.55l.59-.54c-.6.09-1.04.02-1.17-.22-.21-.43.66-1.23 1.95-1.79.14-.06.27-.11.4-.16a.463.463 0 01-.22-.24c-.18-.49.75-1.22 2.1-1.64.18-.05.37-.1.54-.14l-3.08-.25c-.22 1-.66 1.71-1.11 1.68-.26-.02-.49-.29-.63-.72-.09.12-.19.24-.29.35-.91 1.01-1.98 1.55-2.39 1.21-.27-.22-.21-.74.1-1.34-.43.1-.84.14-1.19.14 0 .21 0 .43-.02.66-.11 1.39-.65 2.48-1.2 2.44-.2-.01-.37-.17-.51-.43-.23.67-.57 1.1-.92 1.08a.53.53 0 01-.33-.17c-.36.29-1.71 3-1.3 3.34.2.17.21.53.06.96l.18-.09c0-.13.01-.28.02-.42.1-1.37.63-2.45 1.18-2.41zm63.21 66.19l.01.01c-.14-.27-.26-.59-.36-.93l-.83.7c.57-.1 1-.04 1.18.22zm1.22 1.07c-.4.07-.82-.32-1.17-.98.22.57-.68 1.65-2.1 2.49-.38.23-.76.42-1.13.56.5.25.79.56.76.89-.06.68-1.47 1.18-3.14 1.11-.63-.02-1.2-.12-1.67-.27l-.54.8c.69-.28 1.25-.33 1.46-.08.39.44-.4 1.63-1.76 2.65-.13.1-.27.2-.41.29.15.04.26.11.33.21.37.52-.5 1.62-1.93 2.46-.2.11-.39.21-.58.31l3.65-.56c-.05-1.21.26-2.14.8-2.23.31-.06.66.19.97.64.07-.16.14-.32.23-.48.78-1.44 1.91-2.38 2.51-2.1.39.18.47.8.28 1.61.5-.25.98-.42 1.41-.52a5.74 5.74 0 01-.18-.79c-.28-1.67.06-3.14.75-3.26.25-.04.51.09.76.37.09-.88.39-1.51.83-1.59.15-.02.3.01.45.11.38-.48 1.28-4.24.66-4.53-.31-.14-.42-.58-.36-1.17l-.21.17c.05.17.08.35.11.53.27 1.73-.08 3.23-.78 3.36z" fill="#D8D6CE"/><path fill-rule="evenodd" clip-rule="evenodd" d="M308.132 324.009c.698-.019 11.273-1.457 18.132-3.761 5.202-1.751 8.249-3.71 10.324-5.998.571.207 1.066.217 1.362-.126 0 0 .843-.651.476-2.339.192-.308.376-.615.56-.922.533-.34 1.131-.818 1.809-1.476.939-.952 3.225-4.895 1.972-5.784l-.007-.006.937-1.922c.775.312 1.45.375 1.785-.07 0 0 1.145-1-.193-3.407.176-.586.307-1.214.392-1.88 1.073-1.07 1.947-2.321 1.405-2.981 0 0-.314-.603-1.329-.747a35.88 35.88 0 00-.275-2.59c.454-.722.819-1.881.934-3.744.056-1.329-.9-5.655-2.424-5.536 0 0-.265-.03-.627.116-.439-1.472-.868-2.796-1.216-3.874.585-1.698 1.069-4.321-.053-4.645 0 0-.554-.289-1.433.071a31.63 31.63 0 00-.527-1.304c.537-.8.76-2.253-1.32-5.102-.521-.683-2.174-2.074-3.578-2.686a44.18 44.18 0 00-2.446-2.631c.576-.765.878-1.505.505-1.96 0 0-.627-1.2-2.97-.621a118.26 118.26 0 01-1.414-1.622c.166-.864.042-2.151-.723-4.105-.51-1.23-3.125-4.671-4.385-3.913 0 0-.56.204-.857 1.016-.481-.56-.942-1.094-1.368-1.578.736-.878 1.19-1.766.764-2.285 0 0-.698-1.348-3.397-.503a85.91 85.91 0 00-.839-.79c-.186-.786-.654-1.778-1.584-3.054-.749-.982-3.844-3.43-5.161-2.92l-1.008-.858c.637-.808.991-1.604.597-2.081 0 0-.662-1.274-3.183-.566a16.807 16.807 0 00-.42-.587c-.168-.278-2.515-3.842-4.489-2.889l-.276-.215-.511-.383c-.242-.703-.696-1.562-1.456-2.603-.803-1.055-4.308-3.792-5.418-2.763 0 0-.387.243-.566.848-.684-.363-1.385-.732-2.109-1.104.434-.655.621-1.267.296-1.662 0 0-.818-1.573-4.1-.246l-1.308-.639c.178-.92-.154-2.352-3.524-4.086-1.209-.592-5.618-1.541-6.135-.176 0 0-.04.062-.078.181-.786-.2-1.55-.36-2.289-.476.031-.242-.011-.454-.154-.627 0 0-1.011-1.94-5.284.306-2.292.095-3.991.437-4.846.507-.933.081-2.911.961-5.069 2.044-.573-.46-2.086-1.022-5.491.919-.304.136-4.314 2.128-3.584 4.269-.349.29-.702.607-1.056.937-1.371.103-2.967.516-3.184 1.854.039.3.123.673.371 1.055a79.425 79.425 0 00-1.48 1.714c-.174-.331-.407-.548-.71-.585 0 0-2.233-.755-3.63 4.282-.075.196-.694 2.004-.598 3.575-.558.948-1.133 1.952-1.712 2.958-1.211.695-3.525 2.29-2.882 3.968.102.13.225.275.388.409l-.315.549a.755.755 0 00-.298-.106s-2.233-.753-3.63 4.283c-.067.176-.574 1.651-.608 3.081l-.535.81c-1.168.183-2.313.656-2.495 1.774.051.382.171.88.612 1.368a7.59 7.59 0 00-.463 1.132 7.29 7.29 0 01-.192.561c-1.253.781-3.086 2.227-2.506 3.743.137.175.318.375.569.542l-.252.524c-1.118.615-3.79 2.311-3.107 4.097.186.241.455.524.883.713-.279.663-.49 1.232-.596 1.645-.747.1-2.129.793-3.105 4.311-.094.248-1.073 3.11-.332 4.764-1.138.194-2.235.672-2.412 1.764.06.465.225 1.103.947 1.676-.406.945-.814 1.875-1.204 2.766-1.249.749-3.289 2.264-2.68 3.851.211.271.523.596 1.056.782a19.234 19.234 0 00-.317 3.23c-.634.283-1.123.729-1.235 1.427.071.551.29 1.354 1.423 1.996.146 1.261.343 2.351.471 3.166-.353-.166-.684-.208-.959-.061 0 0-2.271.708-.267 5.501.061.198.673 1.964 1.711 3.147.053.697.109 1.384.171 2.038-.837.26-1.528.738-1.664 1.586.086.667.388 1.694 2.254 2.376a19.9 19.9 0 00.902 2.476c-.608.681-.987 1.472-.676 2.28.337.437.943 1.014 2.295.925.361.631.724 1.215 1.061 1.715-.142.78.097 2.209 2.351 4.347.206.233 3.11 3.332 5.15 2.403a566.932 566.932 0 002.667 2.147l2.962.74c.698 1.211 1.778 2.466 3.137 2.184.355-.193.8-.501 1.066-1.128l1.381.352c-.105.573-.038 1.134.32 1.625.606.464 1.737 1.053 3.911-.54 2.29.595 4.348 1.142 5.593 1.502 4.323 1.253 6.947-.25 10.382-1.14 3.436-.891 9.378-1.853 10.764-2.666 1.388-.81 8.973-2.431 17.538-4.117 8.572-1.684 19.242-3.72 19.938-3.742z" fill="#F3F2E9"/><path fill-rule="evenodd" clip-rule="evenodd" d="M249.982 246.93l-.003-.007c.124.205.247.443.353.705l.586-.6c-.432.114-.774.089-.936-.098zm-1.037-.765c.301-.082.669.194.992.694-.216-.432.392-1.348 1.43-2.119.284-.212.571-.389.846-.532-.413-.161-.669-.392-.669-.659-.006-.557 1.074-1.069 2.416-1.142.507-.028.975.009 1.366.098l.377-.705c-.538.283-.98.367-1.179.182-.346-.326.207-1.376 1.237-2.342.107-.097.211-.193.316-.278a.471.471 0 01-.28-.151c-.338-.402.297-1.408 1.426-2.255a7.41 7.41 0 01.46-.316l-2.986.804c.133 1.018-.047 1.83-.481 1.955-.253.072-.554-.106-.835-.461-.044.14-.099.281-.156.426-.515 1.256-1.338 2.123-1.845 1.937-.321-.114-.441-.622-.352-1.298a5.112 5.112 0 01-1.079.536c.077.198.148.411.205.631.363 1.345.225 2.555-.306 2.704-.194.055-.412-.039-.629-.241.006.711-.169 1.234-.507 1.328a.51.51 0 01-.361-.049c-.247.4-.605 3.402-.102 3.587.246.092.374.422.376.882l.14-.146a6.937 6.937 0 01-.121-.399c-.364-1.327-.226-2.522.301-2.671zm81.786 41.078l.011.005a5.85 5.85 0 01-.646-.753l-.55.935c.503-.284.933-.369 1.185-.187zm1.512.6c-.35.201-.881-.022-1.433-.529.396.463-.086 1.781-1.135 3.052a8.28 8.28 0 01-.876.908c.552.061.929.257 1.009.578.17.663-.988 1.605-2.582 2.105a6.49 6.49 0 01-1.668.304l-.23.937c.553-.494 1.058-.728 1.347-.569.512.281.169 1.668-.767 3.086a6.695 6.695 0 01-.287.413.587.587 0 01.378.092c.519.359.071 1.69-.995 2.962a9.632 9.632 0 01-.442.486l3.254-1.754c-.452-1.119-.478-2.101-.002-2.371.281-.159.688-.043 1.13.281a6.01 6.01 0 01.059-.536c.25-1.613.993-2.882 1.658-2.821.424.04.71.603.801 1.423a6.417 6.417 0 011.152-.959 6.936 6.936 0 01-.431-.682c-.824-1.485-1.002-2.977-.393-3.326.221-.125.517-.085.84.091-.211-.858-.14-1.547.247-1.77a.642.642 0 01.463-.058c.193-.572-.216-4.417-.899-4.483-.342-.029-.596-.402-.734-.98l-.135.233c.095.143.185.3.271.457.844 1.543 1.018 3.072.4 3.43z" fill="#D8D6CE"/><path fill-rule="evenodd" clip-rule="evenodd" d="M-8.575 1066.11c-.018.69.862 11.33 2.801 18.3 1.475 5.29 3.27 8.43 5.446 10.63-.238.55-.273 1.05.054 1.36 0 0 .606.88 2.31.6.298.21.595.41.891.61.312.55.757 1.17 1.379 1.88.902.99 4.718 3.48 5.673 2.28l.006-.01 1.87 1.04c-.353.75-.45 1.43-.025 1.78 0 0 .939 1.2 3.413-.01.576.21 1.196.37 1.856.49 1.012 1.13 2.216 2.07 2.904 1.56 0 0 .618-.28.816-1.29a38.91 38.91 0 002.6-.13c.697.49 1.836.91 3.69 1.12 1.324.13 5.694-.6 5.655-2.12 0 0 .045-.27-.082-.64 1.493-.36 2.838-.72 3.932-1.01 1.666.68 4.26 1.3 4.642.2 0 0 .318-.54.005-1.44.454-.14.895-.3 1.33-.46.77.58 2.21.88 5.164-1.05.71-.48 2.185-2.06 2.871-3.43a43.983 43.983 0 002.756-2.3c.734.61 1.457.95 1.93.61 0 0 1.233-.57.777-2.94.506-.4 1.078-.85 1.694-1.32.855.21 2.147.15 4.138-.51 1.255-.44 4.829-2.87 4.139-4.17 0 0-.175-.57-.97-.91.585-.45 1.142-.89 1.648-1.29.838.79 1.7 1.29 2.242.89 0 0 1.382-.63.68-3.37.264-.25.544-.51.834-.79.794-.15 1.81-.56 3.133-1.43 1.02-.69 3.628-3.65 3.188-4.99l.91-.97c.773.68 1.55 1.08 2.047.71 0 0 1.306-.59.732-3.15.196-.12.4-.25.61-.39.285-.15 3.968-2.31 3.12-4.33l.23-.26c.133-.16.27-.33.408-.49.716-.21 1.597-.62 2.677-1.32 1.096-.75 4.013-4.1 3.045-5.26 0 0-.223-.4-.818-.61.399-.67.804-1.35 1.214-2.05.631.47 1.233.68 1.644.38 0 0 1.614-.73.462-4.08l.707-1.27c.91.22 2.357-.03 4.266-3.31.654-1.17 1.835-5.53.498-6.11 0 0-.058-.05-.176-.09.241-.78.442-1.53.596-2.26.24.04.454.01.634-.12 0 0 1.991-.91-.027-5.3.027-2.29-.226-4-.25-4.86-.032-.94-.807-2.96-1.775-5.17.49-.55 1.13-2.03-.629-5.53-.119-.31-1.898-4.42-4.074-3.81-.27-.36-.57-.73-.88-1.1-.03-1.37-.358-2.99-1.684-3.28-.302.03-.678.09-1.072.32a62.238 62.238 0 00-1.635-1.57c.34-.16.57-.38.623-.68 0 0 .871-2.19-4.086-3.85-.19-.08-1.964-.8-3.538-.79-.918-.6-1.89-1.23-2.864-1.86-.63-1.25-2.101-3.642-3.81-3.089a2.613 2.613 0 00-.429.367l-.532-.344a.749.749 0 00.121-.292s.87-2.19-4.085-3.85c-.172-.077-1.618-.66-3.045-.77l-.781-.576c-.12-1.177-.533-2.345-1.64-2.585-.384.03-.887.124-1.398.538a7.744 7.744 0 00-1.106-.522 6.843 6.843 0 01-.55-.22c-.714-1.293-2.062-3.199-3.606-2.7a2.44 2.44 0 00-.57.539l-.511-.279c-.555-1.149-2.108-3.907-3.927-3.318a2.228 2.228 0 00-.759.843c-.647-.313-1.205-.554-1.612-.682-.06-.75-.68-2.167-4.14-3.327-.244-.107-3.05-1.235-4.741-.582-.133-1.147-.553-2.268-1.634-2.502-.468.035-1.114.166-1.724.857-.923-.455-1.829-.912-2.699-1.348-.682-1.286-2.087-3.404-3.704-2.879a2.229 2.229 0 00-.837 1.014 19.197 19.197 0 00-3.208-.488c-.25-.647-.67-1.159-1.36-1.308-.554.042-1.368.218-2.07 1.316-1.266.079-2.364.219-3.186.304.185-.344.245-.673.113-.955 0 0-.588-2.304-5.48-.556-.201.05-1.997.568-3.233 1.543-.699.016-1.388.036-2.044.063-.215-.85-.656-1.565-1.496-1.745-.67.05-1.712.298-2.491 2.126a19.62 19.62 0 00-2.52.77c-.649-.643-1.419-1.064-2.242-.796-.454.314-1.062.888-1.045 2.243-.648.328-1.251.659-1.768.97-.77-.183-2.21-.019-4.465 2.119-.244.193-3.491 2.93-2.67 5.016-1.292 1.433-2.286 2.55-2.286 2.55l-.894 2.919c-1.246.633-2.556 1.645-2.346 3.018.173.364.458.825 1.07 1.123l-.424 1.361c-.567-.135-1.131-.097-1.64.234-.495.58-1.143 1.679.333 3.93-.714 2.26-1.369 4.29-1.795 5.51-1.478 4.25-.116 6.95.592 10.43.709 3.48 1.357 9.46 2.095 10.89.736 1.43 1.956 9.09 3.188 17.73 1.23 8.65 2.7 19.41 2.686 20.11z" fill="#F3F2E9"/><path fill-rule="evenodd" clip-rule="evenodd" d="M71.461 1012.1l.007-.01c-.212.12-.455.23-.722.32l.568.62c-.091-.44-.049-.78.147-.93zm.819-1c.066.31-.23.66-.746.96.442-.2 1.326.46 2.04 1.53.198.3.36.6.488.88.183-.41.426-.65.693-.63.556.02 1.01 1.12 1.013 2.47.001.51-.06.97-.17 1.36l.685.41c-.255-.55-.316-1-.12-1.19.344-.33 1.363.28 2.273 1.36.091.11.182.22.261.33.03-.11.085-.21.166-.27.419-.32 1.39.37 2.176 1.54.105.16.204.32.292.48l-.646-3.03c-1.024.08-1.824-.14-1.927-.58-.058-.25.135-.55.505-.81a4.153 4.153 0 01-.418-.18c-1.226-.58-2.05-1.44-1.837-1.94.132-.32.645-.41 1.315-.28a5.048 5.048 0 01-.478-1.11c-.202.07-.418.13-.64.17-1.363.29-2.564.09-2.685-.45-.045-.19.06-.4.273-.61-.71-.03-1.223-.23-1.299-.58a.52.52 0 01.068-.36c-.386-.26-3.366-.78-3.577-.29-.104.24-.44.35-.9.33l.138.15c.13-.04.267-.07.405-.1 1.345-.29 2.53-.09 2.652.44zm-45.332 79.51l-.005.01c.221-.21.487-.41.786-.61l-.905-.59c.258.51.32.95.124 1.19zm-.678 1.48c-.183-.36.069-.88.603-1.41-.483.38-1.774-.17-2.988-1.29a8.63 8.63 0 01-.86-.92c-.09.55-.306.91-.63.98-.672.13-1.551-1.08-1.966-2.69a6.552 6.552 0 01-.216-1.69l-.924-.28c.465.58.671 1.1.498 1.38-.308.5-1.675.08-3.042-.93-.138-.1-.272-.2-.397-.31a.61.61 0 01-.112.38c-.386.5-1.691-.02-2.905-1.15a20.78 20.78 0 01-.462-.47l1.58 3.34c1.141-.39 2.123-.37 2.368.12.144.29.006.69-.34 1.12.174.02.351.05.531.08 1.598.34 2.826 1.15 2.73 1.81-.062.42-.64.68-1.463.72.378.41.684.82.897 1.2.215-.14.452-.26.704-.39 1.526-.74 3.026-.84 3.342-.22.113.23.058.52-.136.84.869-.17 1.553-.06 1.755.34.07.13.079.29.034.46.56.23 4.423.02 4.524-.66.047-.34.433-.57 1.017-.68l-.225-.15c-.149.09-.31.17-.471.25-1.585.76-3.12.85-3.446.22z" fill="#D8D6CE"/><path fill-rule="evenodd" clip-rule="evenodd" d="M1445.3 1052.49c.45-.54 6.32-9.45 9.1-16.13 2.11-5.07 2.64-8.65 2.28-11.72.53-.29.86-.66.8-1.11 0 0 .06-1.06-1.45-1.9-.1-.34-.21-.69-.32-1.03.09-.62.12-1.39.07-2.33-.09-1.33-1.56-5.65-3.05-5.29h-.01l-.83-1.97c.74-.38 1.23-.84 1.12-1.39 0 0 0-1.52-2.69-2.1-.33-.51-.72-1.03-1.16-1.53-.1-1.51-.47-2.99-1.32-3.02 0 0-.66-.16-1.44.51-.67-.51-1.39-1.01-2.13-1.5-.24-.81-.88-1.85-2.2-3.162-.97-.916-4.85-3.044-5.77-1.818 0 0-.2.18-.32.549-1.4-.638-2.68-1.186-3.72-1.634-.89-1.558-2.55-3.647-3.53-3.016 0 0-.59.227-.89 1.126-.45-.168-.89-.319-1.33-.461-.25-.931-1.2-2.055-4.71-2.364-.86-.057-2.99.273-4.38.927-1.37-.021-2.57.045-3.59.111-.2-.938-.56-1.652-1.14-1.67 0 0-1.32-.318-2.42 1.828-.65.005-1.38.004-2.16-.003-.54-.694-1.59-1.447-3.56-2.157-1.27-.425-5.58-.72-5.84.728 0 0-.21.555.21 1.313-.74-.006-1.45-.01-2.09-.008-.18-1.132-.55-2.058-1.22-2.079 0 0-1.47-.361-2.61 2.228a73.2 73.2 0 00-1.15.111c-.72-.377-1.77-.678-3.34-.817-1.24-.081-5.12.637-5.6 1.965l-1.31.195c-.19-1.012-.55-1.802-1.17-1.82 0 0-1.4-.339-2.52 2.025-.23-.028-.47-.051-.72-.07-.32-.056-4.55-.634-5.13 1.479l-.34.067-.63.132c-.69-.279-1.63-.503-2.92-.616-1.32-.09-5.69.749-5.64 2.262 0 0-.07.451.26.984-.72.276-1.46.561-2.22.862-.2-.758-.54-1.302-1.05-1.317 0 0-1.72-.419-2.88 2.93l-1.35.56c-.57-.74-1.87-1.432-5.39-.03-1.24.52-4.86 3.21-4.17 4.5 0 0 .02.07.08.18-.67.46-1.29.93-1.86 1.41a.773.773 0 00-.57-.3s-2.13-.51-3.25 4.18c-1.44 1.79-2.3 3.29-2.81 3.98-.55.76-1.19 2.83-1.8 5.17-.72.12-2.14.89-2.92 4.74-.09.31-1.23 4.64.86 5.5-.01.46 0 .93.01 1.41-.82 1.1-1.56 2.58-.7 3.62.25.17.59.35 1.04.42.1.78.21 1.54.32 2.24-.37-.09-.68-.05-.91.15 0 0-2.04 1.18.84 5.55.09.18 1.05 1.84 2.29 2.8.35 1.05.73 2.14 1.11 3.24-.28 1.37-.6 4.16 1.09 4.78.16.01.35.01.56-.02l.21.59c-.1.04-.2.09-.28.16 0 0-2.04 1.19.84 5.55.08.17.86 1.52 1.92 2.49l.26.93c-.64 1-1.03 2.18-.31 3.05.32.21.77.45 1.43.44.17.41.36.78.55 1.09.09.14.19.32.3.51-.24 1.46-.36 3.79 1.16 4.35.23.02.5.01.79-.07l.23.54c-.28 1.24-.76 4.37 1.04 5.03.3.02.69 0 1.11-.19.32.64.61 1.18.85 1.53-.42.63-.8 2.12 1.2 5.17.13.24 1.64 2.86 3.37 3.39-.6.98-.96 2.12-.26 2.97.39.27.98.56 1.89.39.44.93.88 1.85 1.29 2.73-.26 1.43-.46 3.97 1.14 4.55.34.02.79 0 1.28-.28.69.88 1.45 1.67 2.22 2.37-.2.66-.19 1.32.27 1.87.46.3 1.21.67 2.43.24 1.05.72 2 1.29 2.7 1.73-.36.15-.61.37-.68.68 0 0-.96 2.17 3.97 3.82.19.08 1.92.78 3.49.78.56.42 1.12.83 1.65 1.21-.35.81-.45 1.64.1 2.3.56.37 1.53.82 3.27-.13.73.34 1.57.66 2.46.95.11.9.46 1.71 1.27 2.01.55.03 1.39-.05 2.21-1.12.71.14 1.39.25 1.99.33.49.62 1.73 1.38 4.82 1.09.31-.01 4.56-.15 5.2-2.3 1.9-.33 3.37-.6 3.37-.6l2.51-1.74c1.37.27 3.02.28 3.7-.93.09-.39.15-.93-.14-1.54l1.17-.81c.36.46.83.78 1.43.83.75-.15 1.94-.62 2.17-3.3 1.96-1.33 3.72-2.52 4.81-3.22 3.79-2.43 4.39-5.4 5.98-8.57 1.59-3.17 4.77-8.28 5.07-9.86.3-1.58 4.07-8.36 8.44-15.92 4.37-7.56 9.86-16.93 10.3-17.47z" fill="#F3F2E9"/><path fill-rule="evenodd" clip-rule="evenodd" d="M1349 1045.56l-.01-.01c.24.05.5.11.76.2l-.06-.83c-.2.4-.44.64-.69.64zm-1.26.27c.14-.28.59-.37 1.18-.29-.47-.12-.76-1.18-.66-2.47.03-.35.08-.68.16-.98-.4.2-.74.24-.94.07-.42-.37-.1-1.52.73-2.57.31-.41.65-.73.97-.97l-.28-.75c-.14.59-.37.98-.64 1.01-.47.05-.9-1.06-.95-2.47v-.42c-.1.07-.2.11-.3.11-.52-.01-.86-1.15-.76-2.56.02-.19.04-.38.07-.55l-1.36 2.77c.85.57 1.34 1.24 1.15 1.65-.11.24-.44.35-.89.33.07.12.14.26.22.4.6 1.21.71 2.4.24 2.66-.3.17-.76-.08-1.21-.59-.07.44-.17.84-.31 1.17.2.07.41.15.61.26 1.26.61 2.08 1.51 1.84 2.01-.09.18-.3.28-.6.31.54.46.82.94.67 1.26-.05.1-.15.18-.27.24.13.45 2.16 2.69 2.63 2.43.23-.12.56 0 .91.3l-.02-.2c-.12-.05-.25-.11-.38-.17-1.24-.6-2.04-1.49-1.81-1.99zm84.75-34.55l.01-.01c-.3.03-.64.03-.99-.01l.34 1.03c.12-.56.33-.94.64-1.01zm1.44-.75c-.07.4-.59.65-1.34.74.61 0 1.29 1.23 1.55 2.86.08.44.11.86.11 1.26.41-.38.81-.53 1.1-.38.61.3.56 1.8-.11 3.33-.26.57-.56 1.07-.87 1.45l.55.79c-.01-.74.15-1.27.46-1.39.55-.2 1.37.97 1.82 2.61.05.16.09.33.12.49.1-.12.2-.2.32-.23.61-.15 1.32 1.06 1.58 2.7.03.23.05.44.07.66l.82-3.61c-1.14-.4-1.9-1.02-1.79-1.56.07-.31.42-.54.96-.66-.13-.13-.25-.26-.37-.4-1.05-1.25-1.51-2.64-1.03-3.11.31-.29.92-.13 1.6.34a6.08 6.08 0 01.04-1.5c-.26-.02-.53-.07-.8-.13-1.66-.35-2.9-1.2-2.76-1.89.05-.25.27-.44.62-.57-.79-.41-1.26-.91-1.17-1.35.03-.15.12-.28.26-.39-.31-.52-3.47-2.74-3.97-2.27-.25.24-.69.18-1.22-.09l.09.25c.17.02.34.06.52.1 1.72.38 2.98 1.25 2.84 1.95z" fill="#D8D6CE"/><path opacity=".05" d="M1718.79 414.772l-42.48-24.773c-1.76-1.025-4.6-1.026-6.35 0l-67.53 39.637c-1.75 1.027-1.74 2.692.02 3.717l42.48 24.773c1.76 1.027 4.6 1.027 6.35 0l67.53-39.637c1.75-1.027 1.74-2.69-.02-3.717z" fill="#000"/><path d="M1650.06 453.152c.14-.47.35-.938.6-1.379v-.008c.25-.434.55-.839.88-1.196.01-.016.03-.033.04-.05.33-.353.7-.657 1.08-.881.18-.104.35-.18.52-.243.04-.012.07-.024.1-.034.16-.052.32-.088.47-.103l.04-.004c.16-.012.31-.005.45.023l.03.006c.14.031.28.082.41.156l-1.41-.826c-.01-.003-.01-.006-.02-.009a.831.831 0 00-.14-.07c-.05-.021-.1-.038-.15-.054-.03-.009-.07-.016-.1-.023l-.02-.005a1.361 1.361 0 00-.21-.029 1.986 1.986 0 00-.19-.001l-.06.006-.04.004c-.04.004-.07.005-.11.011-.08.013-.16.031-.25.054-.03.01-.07.027-.11.038l-.09.034c-.05.015-.09.026-.13.044-.13.055-.26.121-.4.2-.33.194-.65.446-.94.741-.05.044-.09.093-.13.14a.197.197 0 00-.05.05c-.05.048-.09.093-.13.143-.08.092-.16.186-.23.283-.07.084-.13.17-.19.258-.06.081-.11.163-.17.247-.05.08-.1.16-.14.242-.01.007-.01.015-.02.022v.009l-.12.21-.12.243c-.04.081-.07.165-.11.248-.04.085-.07.17-.1.256-.04.089-.07.18-.1.27-.02.05-.03.1-.04.15-.01.01-.01.02-.01.031a.47.47 0 00-.04.11c-.03.109-.05.219-.08.328a2.75 2.75 0 00-.06.396c-.03.19-.04.377-.04.56 0 .902.32 1.537.83 1.835l1.4.826c-.51-.299-.82-.933-.82-1.835-.01-.45.07-.923.21-1.396.01-.009.01-.019.01-.028z" fill="#4A4C56"/><path d="M1652.66 450.872c.98-.569 1.78-.111 1.78 1.02 0 1.134-.79 2.518-1.76 3.087-.98.569-1.78.111-1.78-1.023 0-1.131.79-2.515 1.76-3.084z" fill="#BFBFBF"/><path d="M1652.66 449.639c1.56-.913 2.84-.181 2.84 1.634.01 1.816-1.26 4.026-2.82 4.939-1.57.912-2.84.18-2.84-1.636-.01-1.816 1.26-4.025 2.82-4.937zm.02 5.339c.97-.568 1.76-1.953 1.76-3.086 0-1.131-.8-1.589-1.78-1.02-.97.569-1.76 1.953-1.76 3.084 0 1.134.8 1.592 1.78 1.022z" fill="#545456"/><path d="M1651.55 447.985l.41 5.669 1.17-.557 1.55-6.081-3.13.969z" fill="#E7E7EE"/><path d="M1606.89 427.969c.14-.47.34-.938.59-1.378.01-.003.01-.006.01-.008.25-.435.54-.84.87-1.197.02-.016.03-.033.05-.049.33-.354.69-.658 1.08-.881.18-.105.35-.181.52-.244.03-.012.07-.024.1-.034.16-.052.31-.088.46-.103l.05-.004c.16-.012.31-.005.45.023.01.002.02.004.02.006.15.032.29.082.41.156l-1.4-.826c-.01-.003-.01-.006-.02-.009-.05-.026-.09-.05-.14-.07-.05-.021-.1-.038-.15-.053-.03-.01-.07-.016-.1-.024l-.03-.005c-.01-.003-.02-.007-.03-.008a1.644 1.644 0 00-.36-.022l-.06.006c-.02.001-.03.003-.04.005-.04.003-.07.004-.11.01-.08.013-.17.031-.25.054-.04.01-.07.027-.11.038a1.63 1.63 0 01-.1.034c-.04.016-.08.026-.12.044-.13.055-.27.121-.4.2-.33.194-.65.446-.95.741-.04.044-.08.093-.13.14-.01.016-.03.032-.04.05-.05.048-.09.093-.14.143-.08.092-.15.186-.23.283-.06.084-.12.17-.19.258-.05.081-.11.163-.16.247l-.15.242c0 .007 0 .015-.01.023v.008l-.12.21-.12.243c-.04.082-.08.165-.11.248-.04.085-.07.17-.11.256l-.09.27c-.02.05-.03.1-.05.15 0 .01 0 .02-.01.031l-.03.11a5.6 5.6 0 00-.15.725 5.32 5.32 0 00-.03.559c0 .902.31 1.537.82 1.835l1.41.826c-.51-.298-.82-.933-.83-1.835 0-.45.08-.923.22-1.396 0-.009.01-.019.01-.028z" fill="#4A4C56"/><path d="M1609.49 425.689c.98-.569 1.77-.111 1.78 1.02 0 1.133-.79 2.518-1.77 3.086-.97.57-1.77.112-1.77-1.022-.01-1.131.78-2.515 1.76-3.084z" fill="#BFBFBF"/><path d="M1609.49 424.456c1.56-.913 2.83-.181 2.84 1.634 0 1.816-1.26 4.026-2.83 4.939-1.56.912-2.83.18-2.84-1.636 0-1.816 1.26-4.025 2.83-4.937zm.01 5.339c.98-.568 1.77-1.953 1.77-3.086-.01-1.131-.81-1.589-1.78-1.02-.98.569-1.77 1.953-1.76 3.084 0 1.134.79 1.592 1.77 1.022z" fill="#545456"/><path d="M1608.38 422.802l.41 5.669 1.17-.557 1.54-6.081-3.12.969z" fill="#E7E7EE"/><path d="M1710.06 417.998c.14-.47.34-.938.59-1.378.01-.003.01-.006.01-.008.25-.435.55-.839.87-1.196.02-.017.03-.033.05-.05.33-.353.69-.658 1.08-.881.18-.104.35-.181.52-.243.03-.012.07-.024.1-.035.16-.052.31-.087.46-.102l.05-.005a1.618 1.618 0 01.47.029c.15.032.29.083.41.156l-1.4-.826c-.01-.003-.01-.006-.02-.008-.05-.027-.09-.05-.14-.071a1.79 1.79 0 00-.15-.053c-.03-.01-.07-.016-.1-.023l-.03-.006-.03-.008a1.693 1.693 0 00-.36-.022c-.02.001-.04.005-.06.007l-.04.004c-.04.004-.07.005-.11.011-.08.012-.16.03-.25.053-.03.01-.07.027-.11.039-.03.01-.06.021-.1.033-.04.016-.08.026-.12.045a3.1 3.1 0 00-.4.199c-.33.194-.65.446-.95.741-.04.045-.08.094-.13.14-.01.017-.03.033-.04.05-.05.048-.09.094-.14.143-.08.092-.15.186-.23.283-.06.084-.12.17-.18.258a3.2 3.2 0 00-.17.247l-.15.242c0 .008 0 .015-.01.023v.008l-.12.21-.12.243c-.04.082-.08.165-.11.248-.04.085-.07.17-.11.257l-.09.269c-.02.05-.03.1-.05.15 0 .011 0 .021-.01.031l-.03.11c-.03.11-.06.219-.08.328-.03.133-.05.266-.07.397-.02.189-.03.376-.03.56 0 .902.31 1.536.82 1.835l1.41.825c-.51-.298-.82-.932-.83-1.834 0-.45.08-.924.22-1.397 0-.009.01-.019.01-.028z" fill="#4A4C56"/><path d="M1712.66 415.718c.98-.568 1.77-.111 1.78 1.021 0 1.133-.79 2.517-1.77 3.086-.97.569-1.77.111-1.77-1.022-.01-1.132.78-2.515 1.76-3.085z" fill="#BFBFBF"/><path d="M1712.66 414.485c1.56-.912 2.83-.181 2.84 1.635 0 1.815-1.26 4.026-2.82 4.938-1.57.912-2.84.18-2.85-1.636 0-1.815 1.26-4.025 2.83-4.937zm.01 5.34c.98-.569 1.77-1.953 1.77-3.086-.01-1.132-.8-1.589-1.78-1.021-.97.57-1.77 1.953-1.76 3.085 0 1.133.8 1.591 1.77 1.022z" fill="#545456"/><path d="M1711.55 412.832l.41 5.668 1.17-.557 1.54-6.08-3.12.969z" fill="#E7E7EE"/><path d="M1719.8 409.054l-.03.035c-.21.308-.53.598-.96.849l-67.53 39.637c-.4.238-.87.408-1.37.536-.07.018-.14.038-.22.054-.5.11-1.02.175-1.55.177h-.06a7.407 7.407 0 01-1.63-.186l-.06-.015a5.444 5.444 0 01-1.46-.566l-42.48-24.773c-.89-.516-1.33-1.194-1.33-1.871a5.661 5.661 0 00-.06 1.99c.15.999.5 1.337 1.38 1.853l42.49 24.773a4.996 4.996 0 001.19.5c.09.025.18.045.26.066.03.005.05.011.07.016.05.011.09.025.14.035a7.306 7.306 0 001.32.151c.06.001.11-.001.17-.001h.06c.08 0 .15.001.23-.001a7.185 7.185 0 001.07-.114c.09-.016.16-.043.25-.062.07-.016.14-.035.21-.054.13-.033.27-.057.39-.098.36-.116.69-.262.99-.438l67.58-39.67c1.94-1.185 1.52-4.125 1.22-4.125 0 .327-.07.994-.28 1.302z" fill="#DFDFDF"/><path d="M1716.26 407.708c.35.205.35.54 0 .744l-67.53 39.638c-.34.204-.92.204-1.27-.001l-42.48-24.773c-.35-.204-.35-.539 0-.743l67.53-39.638c.34-.204.92-.204 1.27 0l42.48 24.773z" fill="#A6C45A"/><path d="M1718.79 406.221c1.76 1.027 1.77 2.69.02 3.717l-67.53 39.637c-1.75 1.027-4.59 1.027-6.35 0l-42.48-24.773c-1.76-1.026-1.77-2.69-.02-3.717l67.53-39.637c1.75-1.027 4.59-1.026 6.35 0l42.48 24.773zm-70.06 41.869l67.53-39.638c.35-.204.35-.539 0-.744l-42.48-24.773c-.35-.204-.93-.204-1.27 0l-67.53 39.638c-.35.204-.35.539 0 .743l42.48 24.773c.35.205.93.205 1.27.001z" fill="#E6E6E6"/><path d="M1669.32 379.109c2.13-1.24 2.4.3 2.4 2.389l-3.25 1.901-.01-1.892.86-2.398z" fill="#DFDFDF"/><path d="M1669.87 378.835l.05-.019c.15-.057.28-.099.41-.122l.03-.007c.13-.023.25-.026.36-.012l.01.001c.12.017.21.05.3.102l-.35-.206c0-.002 0-.003-.01-.005a.372.372 0 00-.08-.041 1.065 1.065 0 00-.18-.053l-.03-.003-.01-.002a.961.961 0 00-.19-.008c-.05.002-.1.007-.15.015-.01.001-.02.004-.02.006a.552.552 0 00-.04.006c-.04.009-.09.018-.14.032-.08.022-.17.056-.26.09l-.05.02-.02.006c-.16.068-.34.156-.53.267l-.86 2.399v1.891l.35.207v-1.892l.86-2.398c.2-.116.38-.205.55-.274z" fill="#EFEFEF"/><path d="M1671.03 382.85a.755.755 0 01-.75-.756v-47.539a.75.75 0 111.5 0v47.539c0 .418-.33.756-.75.756z" fill="#CFCFCF"/><path d="M1716.83 373.331l-.04 13.966-45.76-26.682.04-13.967 45.76 26.683z" fill="#C6C6C6"/><path d="M1716.83 373.331l.42-.248-.04 13.967-.42.247.04-13.966z" fill="#BFBFBF"/><path d="M1671.07 346.648l.42-.248 45.76 26.683-.42.248-45.76-26.683z" fill="#CFCFCF"/><path d="M1670.97 380.062c2.13-1.24 2.4.3 2.4 2.389l-3.26 1.901v-1.891l.86-2.399z" fill="#DFDFDF"/><path d="M1671.52 379.788l.05-.019c.15-.057.28-.099.4-.122l.04-.007a1.229 1.229 0 01.37-.01c.11.016.21.05.3.101l-.35-.206c0-.002-.01-.003-.01-.005a.372.372 0 00-.08-.041 1.065 1.065 0 00-.18-.053l-.03-.003-.01-.002-.07-.007a1.27 1.27 0 00-.27.014l-.03.006-.03.007c-.04.009-.09.017-.14.031-.08.022-.17.056-.26.09-.02.008-.04.012-.05.02-.01.002-.02.003-.02.006-.16.068-.34.157-.53.267l-.86 2.399v1.892l.35.206v-1.891l.86-2.399c.2-.115.38-.205.55-.274z" fill="#EFEFEF"/><path d="M1714.15 408.136a.869.869 0 01.25-.266c.1-.057.19-.062.26-.025l-24.2-14.201-19.42-11.399c0-.003-.01-.006-.02-.009 0-.002-.01-.005-.02-.007a.062.062 0 00-.02-.004l-.02-.003h-.02l-.03.003a.16.16 0 00-.03.006c-.01.004-.03.009-.04.015-.02.007-.03.015-.05.025a.74.74 0 00-.12.092c-.01.013-.02.027-.04.041-.01.012-.02.024-.02.036l-.03.032c-.01.01-.01.021-.02.031-.01.01-.01.021-.02.031v.004c0 .008-.01.017-.01.026-.01.01-.01.02-.02.031 0 .01-.01.021-.01.031-.01.011-.01.021-.02.032 0 .011-.01.023-.01.034 0 .012-.01.024-.01.036 0 .014-.01.028-.01.041 0 .017-.01.033-.01.05v.069c0 .112.04.192.1.229l43.61 25.599c-.06-.037-.1-.116-.1-.229s.04-.238.1-.35v-.001z" fill="#BFBFBF"/><path d="M1714.4 407.87c.2-.114.36-.022.36.204a.8.8 0 01-.35.617c-.2.114-.36.023-.36-.204 0-.226.16-.503.35-.617z" fill="#CFCFCF"/><path d="M1715.06 405.778c2.13-1.24 2.4.3 2.4 2.39l-3.25 1.9-.01-1.891.86-2.399z" fill="#DFDFDF"/><path d="M1714.56 408.435c.44-.07.5-1.162.43-1.08-.35.431-.63.708-.65.845-.02.136.22.235.22.235z" fill="#BFBFBF"/><path d="M1715.61 405.504c.02-.008.04-.012.06-.019.14-.057.28-.099.4-.122l.03-.007c.13-.022.25-.026.36-.012l.02.002c.11.016.21.05.29.101l-.35-.206v-.005a1.195 1.195 0 00-.18-.072.982.982 0 00-.09-.022l-.03-.003-.01-.001c-.02-.003-.04-.007-.07-.008a1.27 1.27 0 00-.27.014l-.02.006-.03.007c-.05.009-.1.017-.15.031-.08.022-.17.056-.26.09l-.05.02-.02.006c-.16.068-.34.157-.53.268l-.86 2.398v1.892l.36.206-.01-1.891.87-2.399c.19-.115.37-.205.54-.274z" fill="#EFEFEF"/><path d="M1716.77 409.519a.748.748 0 01-.74-.756v-47.539l2.17-16.251c.32-2.422-.82-4.776-2.92-5.998l-35.54-20.725a2.896 2.896 0 00-2.63-.162 2.931 2.931 0 00-1.71 2.02l-3.64 14.632c-.1.403-.5.651-.91.548a.755.755 0 01-.54-.918l3.63-14.631a4.48 4.48 0 012.58-3.043 4.374 4.374 0 013.96.245l35.55 20.725a7.506 7.506 0 013.65 7.51l-2.16 16.149v47.438a.75.75 0 01-.75.756z" fill="#CFCFCF"/><path d="M1716.71 406.731c2.13-1.24 2.4.3 2.4 2.39l-3.25 1.9-.01-1.891.86-2.399z" fill="#DFDFDF"/><path d="M1717.26 406.457l.05-.019c.15-.057.28-.098.41-.122l.03-.007c.13-.022.25-.026.36-.012l.01.002c.12.016.21.05.3.101l-.35-.206c0-.002 0-.003-.01-.004a.333.333 0 00-.08-.042 1.065 1.065 0 00-.18-.053l-.03-.003-.01-.001a.833.833 0 00-.19-.009c-.05.002-.1.008-.15.015a.067.067 0 00-.02.006c-.01.002-.02.005-.04.007-.04.009-.09.017-.14.031-.08.022-.17.056-.26.091l-.05.019-.02.006c-.16.068-.34.157-.53.268l-.86 2.398v1.892l.36.206-.01-1.891.86-2.399c.2-.115.38-.205.55-.274z" fill="#EFEFEF"/><path opacity=".05" d="M1741.46 381.813c5.14 2.997 17.64.567 27.92-5.427 10.28-5.995 14.45-13.284 9.31-16.281-5.14-2.997-17.64-.567-27.92 5.427-10.28 5.995-14.45 13.284-9.31 16.281z" fill="#000"/><path d="M1788.35 351.639s-.93.157-1.09.013c-.16-.144.44-.751.44-.751l.45.24.2.498z" fill="#988F84"/><path d="M1790.35 347.131c-.22-1.557-.77-3.053-2.26-3.952-2.48-1.503-4.89.52-6.08 1.948-1.18 1.428-1 3.236-4.19 7.341-.81 1.037-5.54 5.518-3.04 7.005 1.8 1.07 5.73-.501 8.97-2.646 2.77-1.832 3.42-5.536 4.21-5.643.13.01.15.442.39.455.53.03 2.82-2.691 2.64-3.325-.16-.558-.2-.753-.64-1.183z" fill="#4A4C56"/><path d="M1780.05 336.981c2.79 1.981 5.4 5.054 7.25 6.238 2.35 1.51-.77 4.931-1.75 5.117-.23.043-.08-.699-.15-1.21-.07-.58-3.69-.643-4.09-.056-.22.336.63-1.065 1.18-1.754.22-.279.48-.667.53-.819.3-.934-6.75-4.233-7.36-4.873-.62-.639 3.19-3.499 4.39-2.643z" fill="#FFD6D6"/><path d="M1743.18 299.084c11.27 19.961 10.92 34.102 18.6 31.744 7.68-2.358-3.44-33.051-9.41-40.321-5.96-7.27-9.19 8.577-9.19 8.577z" fill="#3B435A"/><path d="M1753.97 323.09c-2.52 7.091 24.78 25.396 27.91 23.407 3.68-2.35 3.95-3.586 3.75-6.354-.31-4.216-18.93-19.425-24.7-18.902-7.97.721-6.96 1.849-6.96 1.849z" fill="#3B435A"/><path d="M1758.95 296.943c-16.43 17.132-28.96 43.061-23.77 48.903 1.61 1.802 6.99 3.677 9.32.421 9.37-13.075 17.92-27.394 21-32.328 7.52-12.032-2.12-21.607-6.55-16.996z" fill="#3B435A"/><path d="M1741.15 391.718s-.91-.201-1.01-.395c-.1-.193.68-.534.68-.534l.33.392v.537z" fill="#988F84"/><path d="M1744.67 388.283c.37-1.53.4-3.126-.65-4.518-1.75-2.325-4.74-1.35-6.36-.468-1.62.883-2.12 2.63-6.59 5.248-1.13.662-6.89 3.587-5.11 5.905 1.28 1.668 5.23 1.144 9.02.365 3.25-.665 5.21-3.862 5.98-3.663.12.056-.03.463.19.566.48.226 3.61-1.443 3.68-2.098.06-.578.09-.773-.16-1.337z" fill="#4A4C56"/><path d="M1742.27 373.508c1.86 2.882-.28 8.206 1 9.996 1.63 2.285-2.53 4.292-3.5 4.099-.23-.045.18-.68.3-1.18.15-.567-3.19-1.98-3.77-1.583-.34.228.97-.755 1.73-1.189.31-.175.69-.44.79-.562.63-.753-1.27-7.948-1.6-8.772-.34-.824 4.25-2.054 5.05-.809z" fill="#FFD6D6"/><path d="M1736.67 331.626c-4 .634-5.08 40.047-1.99 49.84.32 1.013 8.95 2.523 10.16-1.271.75-2.372.03-11.154.03-13.576 0-6.296 5.82-37.218-8.2-34.993z" fill="#3B435A"/><path d="M1727.21 281.949c.28-.228-5.43-1.33-8.03.21-2.25 1.333-5.19 4.23-10.72 8.282-3.6 2.63-5.97 4.18-5.97 6.726 0 0-.05 9.214 5.96 9.374 2.29.061 2.84 2.389 4.71-.634 1.24-2.013 5.41-9.169 8.96-8.469 3.39.67 5.03.349 5.81.065 0 0-1.17-15.178-.72-15.554z" fill="#A6C45A"/><path d="M1705.11 295.763c-1.38.303-4.26 5.025-3.16 8.244.56 1.627 2.73.354 5.7-2.615 2.28-2.277-.87-5.997-2.54-5.629z" fill="#FFD0D2"/><path d="M1705.5 297.472c-3.38-1.101-17.35 21.019-15.12 22.742 1.39 1.075 13.83-13.914 15.85-18.333 2.01-4.419-.73-4.409-.73-4.409z" fill="#FFD0D2"/><path d="M1686.38 319.743c.72-1.013 3.28-2.21 4.96-1.16 2.84 1.774-.59 3.872-1.07 4.307-1.46 1.317-.22 3.581-2.85 2.916-1.63-.41-2.53-3.956-1.04-6.063z" fill="#FFD0D2"/><path d="M1757.03 309.55c3.87-.176 1.71.362 5.32 1.093 3.62.73 2.3-4.737 5.68-5.312 3.38-.574 2.54-3.146 1.31-7.673s-14.96-15.094-29.19-16.587c-10.34-1.085-16.17-1.812-19.51.16-3.35 1.971-10.77 9.451-8.82 14.116 2.54 6.095 20.29 7.402 20.06 6.106 0 0 4.71 7.642 7.03 8.916 7.15 3.924 4.62 5.693 8.42 4.613 6.34-1.804 7.83-5.346 9.7-5.432z" fill="#A6C45A"/><path d="M1719.42 290.478c3.38 1.755 6.63 2.246 8.61.987 1.97-1.259 2.95-5.62 2.22-7.032-.73-1.413-5.75-1.966-8.64-1.014-2.89.952-2.19 7.059-2.19 7.059z" fill="#FCC"/><path d="M1709.07 279.266c-.62 2.84 3.18 7.233 3.18 7.233s2.28 6.314 8.56 5.58c4.99-.583 6.53-6.947 6.53-6.947s2.38-14.775-8.4-13.744c-8.68.829-9.26 5.038-9.87 7.878z" fill="#FFD0D2"/><path d="M1711.11 271.967c4.69-4.146 9.21-3.33 10.16-1.955 1.78-.089 3.82 1.023 5.22 3.616 3.82 7.041.08 13.572.08 13.572s-1.16-.361-.33-.603c1.06-.307 2.02-6.238.4-6.964-1.62-.725-1.38 4.145-1.38 4.145l-.24 1.523-1.09-2.7s-.79.052-2.8-1.177c-1.79-1.096-6.44-.86-7.36-.066-.99.844-2.69 3.559-2.53 3.826l.79 1.049s-1.17-.106-1.98-1.327c-.82-1.241-4.47-8.057 1.06-12.939z" fill="#3B435A"/><path d="M1732.74 281.746c.13-.338 9.35 11.031 8.78 14.017-.5 2.583-4.44 3.871-8.52 9.416-1.91 2.608-2.33 5.402-3.68 6.759 0 0-4.9 11.539-10.15-4.86-1.52-1.553 3.85-12.812 4.92-14.604 1.08-1.791 8.45-10.172 8.65-10.728z" fill="#A6C45A"/><path d="M1724.2 309.792c2.15 2.852-12.04 23.322-14.39 21.771-1.47-.967 6.57-17.609 10.03-20.995 3.45-3.387 4.36-.776 4.36-.776z" fill="#FFD0D2"/><path d="M1705.74 331.251c.72-1.013 3.28-2.211 4.96-1.16 2.84 1.774-.59 3.871-1.07 4.306-1.46 1.318-.22 3.582-2.85 2.917-1.62-.411-2.53-3.956-1.04-6.063zm14.74-24.317c-1.27.617-1.64 5.299.18 8.171.92 1.452 2.62.455 4.25-3.433 1.55-3.712-2.89-5.487-4.43-4.738z" fill="#FFD0D2"/><path d="M249.549 547.142c-1.124-.571-2.006-1.641-1.705-3.747.3-2.105-.033-1.885 0-3.491.032-1.606.052-2.447.347-3.364.296-.917 3.369 1.216 3.369 1.216l-2.011 9.386z" fill="#A6C45A"/><path opacity=".05" d="M250.95 629.599c-1.249-2.982 3.649-7.956 10.941-11.11 7.291-3.153 14.215-3.291 15.464-.308 1.249 2.982-3.65 7.957-10.941 11.11-7.292 3.153-14.215 3.291-15.464.308z" fill="#1A1A1A"/><path d="M269.923 581.999c1.622-6.285 3.3-41.306.484-42.029-2.816-.722-7.608-2.473-9.248 1.748-1.641 4.221 2.335 40.431 3.579 41.335 1.244.903 4.237 2.619 5.185-1.054z" fill="#FFD4D5"/><path d="M263.98 618.472c-.539-.327-.865 1.594-.649 1.922.217.328 3.276 1.904 4.459 2.234 1.183.33 4.86 1.543 7.619 1.262 2.759-.281 4.133-1.103 3.746-2.549-.179-.671-9.971.283-15.175-2.869z" fill="#E6E6E6"/><path d="M266.427 620.118c-1.468-.75-2.715-1.293-2.785-1.534-.17-.59-.049-1.783.255-2.824.714.443 2.549 1.831 2.53 4.358z" fill="#A6C45A"/><path d="M264.497 582.579c-4.052 17.504 1.812 29.954.178 32.335-.683.996.821 2.308 1.552 2.527 1.655.498 1.741-.544 2.697-1.332 1.017-.838.106-1.226-.451-1.683-.592-.485 1.748-22.582 1.827-31.014.011-1.154.105-2.715-.037-3.29-.19-.772-5.467 1.166-5.766 2.457z" fill="#FFD4D5"/><path d="M268.208 616.786c-.338-.005-.868-.775-1.114-1.163a.23.23 0 01.091-.329c.541-.689 1.298-1.118 2.373-1.167a.1.1 0 01.135.047l.544 1.13s2.095 2.038 3.173 2.742c1.527.999 7.202 2.508 5.239 3.897-.998.706-2.047.962-3.329.993a2.197 2.197 0 01-.277-.976c-.016-.747-5.865-5.158-6.835-5.174z" fill="#EFEFEF"/><path d="M277.313 619.835c-.041-.508-2.909-1.271-3.858-1.97-.948-.7-2.848-2.748-3.128-2.606-.28.143-.183.209-.054.362s2.394 2.093 3.127 2.63c.734.537 2.964 1.423 3.378 1.474.413.051.542.205.535.11z" fill="#EFEFEF"/><path opacity=".6" d="M277.313 619.835c-.041-.508-2.909-1.271-3.858-1.97-.948-.7-2.848-2.748-3.128-2.606-.28.143-.183.209-.054.362s2.394 2.093 3.127 2.63c.734.537 2.964 1.423 3.378 1.474.413.051.542.205.535.11z" fill="#fff"/><path d="M265.442 618.1c.408.045.494-.756.494-.756-1.224-.582-1.732-1.63-1.732-1.63-.058-.431.423-1.333.627-1.692.067-.011.09.031.14.015.068.502-.537.984-.396 1.754.098.533 1.882 1.785 2.543 1.726.661-.059.418-1.054 1.388-1.038.97.016 6.521 4.734 6.537 5.481.008.387.146.732.277.976a17.166 17.166 0 01-1.738-.061c-.701-.055-4.43-1.003-5.551-1.361-2.815-.899-4.494-2.271-4.563-2.512-.116-.403-.015-1.283.158-2.132a.687.687 0 01.35-.061c.629.028 1.057 1.246 1.466 1.291z" fill="#EFEFEF"/><path opacity=".5" d="M265.442 618.1c.408.045.494-.756.494-.756-1.224-.582-1.732-1.63-1.732-1.63-.058-.431.423-1.333.627-1.692.067-.011.09.031.14.015.068.502-.537.984-.396 1.754.098.533 1.882 1.785 2.543 1.726.661-.059.418-1.054 1.388-1.038.97.016 6.521 4.734 6.537 5.481.008.387.146.732.277.976a17.166 17.166 0 01-1.738-.061c-.701-.055-4.43-1.003-5.551-1.361-2.815-.899-4.494-2.271-4.563-2.512-.116-.403-.015-1.283.158-2.132a.687.687 0 01.35-.061c.629.028 1.057 1.246 1.466 1.291z" fill="#fff"/><path d="M264.805 614.027c.011-.004.018-.003.026-.005-.204.36-.685 1.261-.627 1.692 0 0 .508 1.048 1.732 1.63 0 0-.086.801-.494.756-.409-.045-.837-1.262-1.466-1.29a.694.694 0 00-.351.06c.08-.393.176-.78.272-1.11.22-.753.212-1.493.908-1.733z" fill="#A6C45A"/><path d="M272.979 619.982c.016.001.033 0 .05-.004a.188.188 0 00.138-.223c-.001-.006-.134-.634.165-1.006.159-.197.421-.294.781-.288a.185.185 0 00.186-.184.184.184 0 00-.18-.189c-.479-.008-.84.135-1.073.426-.411.515-.244 1.29-.237 1.323.019.084.09.141.17.145z" fill="#fff"/><path d="M271.812 619.14a.164.164 0 00.075-.012l.157-.061c1.008-.394 1.959-.766 3.012.028a.182.182 0 00.257-.038.19.19 0 00-.038-.261c-1.215-.917-2.307-.49-3.363-.077l-.156.061a.187.187 0 00-.106.241.183.183 0 00.162.119z" fill="#fff"/><path d="M274.169 620.813a.186.186 0 00.189-.227c-.002-.007-.134-.635.165-1.007.158-.197.421-.294.78-.288a.187.187 0 00.006-.373c-.478-.008-.839.136-1.072.427-.411.514-.245 1.29-.238 1.322.019.084.09.142.17.146z" fill="#fff"/><path d="M273.004 619.971a.197.197 0 00.075-.012l.157-.061c1.008-.394 1.959-.766 3.012.028a.182.182 0 00.257-.039.19.19 0 00-.038-.261c-1.215-.916-2.307-.489-3.363-.077l-.156.061a.188.188 0 00.056.361zm-1.615-1.105c.016.001.033 0 .05-.004a.188.188 0 00.138-.223c-.001-.006-.134-.634.165-1.006.159-.197.421-.294.781-.288a.185.185 0 00.186-.184.184.184 0 00-.18-.189c-.479-.008-.839.135-1.072.426-.412.515-.245 1.29-.238 1.323.019.083.09.141.17.145z" fill="#fff"/><path d="M270.224 618.024a.164.164 0 00.075-.012l.157-.061c1.007-.394 1.959-.766 3.012.028a.182.182 0 00.257-.038.19.19 0 00-.038-.261c-1.216-.917-2.307-.49-3.363-.077l-.156.061a.187.187 0 00.056.36zm-.4-.203a.215.215 0 00.05-.004.186.186 0 00.138-.223c-.003-.015-.131-.637.166-1.007.158-.197.42-.293.78-.287a.187.187 0 00.006-.373c-.479-.009-.839.135-1.072.426-.412.515-.245 1.29-.238 1.323.019.083.09.141.17.145z" fill="#fff"/><path d="M268.66 616.979a.16.16 0 00.074-.012l.158-.061c1.007-.394 1.958-.766 3.011.028a.181.181 0 00.257-.039.188.188 0 00-.038-.261c-1.215-.916-2.307-.489-3.362-.076l-.157.061a.187.187 0 00.057.36z" fill="#fff"/><path d="M259.8 588.771c1.622-6.284 3.3-41.306.484-42.029-2.816-.722-7.608-2.473-9.248 1.748-1.641 4.221 2.335 40.432 3.579 41.335 1.244.903 4.237 2.619 5.185-1.054z" fill="#FFD4D5"/><path d="M253.858 625.244c-.539-.326-.866 1.595-.649 1.923.217.327 3.276 1.903 4.459 2.233 1.183.33 4.86 1.543 7.619 1.262 2.759-.281 4.133-1.103 3.746-2.548-.179-.672-9.971.282-15.175-2.87z" fill="#E6E6E6"/><path d="M256.304 626.89c-1.468-.75-2.715-1.293-2.785-1.534-.17-.59-.049-1.783.255-2.824.714.443 2.549 1.831 2.53 4.358z" fill="#A6C45A"/><path d="M254.374 589.351c-4.052 17.504 1.812 29.954.178 32.335-.683.996.821 2.308 1.552 2.528 1.655.497 1.741-.544 2.697-1.333 1.017-.838.106-1.226-.451-1.682-.592-.486 1.748-22.583 1.827-31.015.011-1.154.105-2.715-.037-3.29-.19-.772-5.467 1.166-5.766 2.457z" fill="#FFD4D5"/><path d="M258.085 623.559c-.339-.006-.868-.776-1.114-1.164a.23.23 0 01.091-.329c.541-.689 1.298-1.118 2.373-1.167a.101.101 0 01.135.047l.544 1.131s2.095 2.038 3.173 2.742c1.527.998 7.202 2.507 5.239 3.896-.998.707-2.047.962-3.329.994a2.206 2.206 0 01-.277-.977c-.016-.747-5.865-5.157-6.835-5.173z" fill="#EFEFEF"/><path d="M267.19 626.608c-.041-.509-2.909-1.272-3.858-1.971-.948-.699-2.848-2.748-3.128-2.605-.281.142-.183.208-.054.361.129.154 2.394 2.094 3.127 2.631.734.537 2.964 1.423 3.378 1.474.413.05.542.204.535.11z" fill="#EFEFEF"/><path opacity=".6" d="M267.19 626.608c-.041-.509-2.909-1.272-3.858-1.971-.948-.699-2.848-2.748-3.128-2.605-.281.142-.183.208-.054.361.129.154 2.394 2.094 3.127 2.631.734.537 2.964 1.423 3.378 1.474.413.05.542.204.535.11z" fill="#fff"/><path d="M255.32 624.872c.408.045.494-.756.494-.756-1.224-.581-1.732-1.63-1.732-1.63-.058-.431.423-1.332.627-1.691.067-.011.09.03.14.015.068.502-.537.984-.396 1.753.098.533 1.882 1.786 2.543 1.727.661-.059.418-1.054 1.388-1.038.97.016 6.521 4.733 6.537 5.48.008.387.146.732.277.977a17.166 17.166 0 01-1.738-.061c-.701-.055-4.43-1.003-5.551-1.362-2.815-.899-4.494-2.27-4.563-2.511-.116-.403-.015-1.283.157-2.133a.694.694 0 01.351-.06c.629.028 1.057 1.245 1.466 1.29z" fill="#EFEFEF"/><path opacity=".5" d="M255.32 624.872c.408.045.494-.756.494-.756-1.224-.581-1.732-1.63-1.732-1.63-.058-.431.423-1.332.627-1.691.067-.011.09.03.14.015.068.502-.537.984-.396 1.753.098.533 1.882 1.786 2.543 1.727.661-.059.418-1.054 1.388-1.038.97.016 6.521 4.733 6.537 5.48.008.387.146.732.277.977a17.166 17.166 0 01-1.738-.061c-.701-.055-4.43-1.003-5.551-1.362-2.815-.899-4.494-2.27-4.563-2.511-.116-.403-.015-1.283.157-2.133a.694.694 0 01.351-.06c.629.028 1.057 1.245 1.466 1.29z" fill="#fff"/><path d="M254.683 620.799c.01-.004.017-.003.025-.004-.204.359-.685 1.26-.627 1.691 0 0 .508 1.049 1.732 1.63 0 0-.085.801-.494.756-.408-.045-.836-1.262-1.465-1.29a.692.692 0 00-.351.06c.08-.393.175-.78.272-1.11.219-.752.211-1.493.908-1.733z" fill="#A6C45A"/><path d="M262.856 626.755a.186.186 0 00.188-.228c-.001-.006-.134-.634.165-1.006.159-.197.421-.294.781-.288a.184.184 0 00.186-.183.185.185 0 00-.18-.19c-.479-.008-.84.136-1.073.427-.411.514-.244 1.29-.237 1.322a.186.186 0 00.17.146z" fill="#fff"/><path d="M261.69 625.913a.197.197 0 00.075-.012l.157-.061c1.008-.394 1.959-.766 3.012.028a.182.182 0 00.257-.039.19.19 0 00-.038-.261c-1.215-.916-2.307-.489-3.363-.077l-.156.061a.188.188 0 00.056.361z" fill="#fff"/><path d="M264.046 627.585c.016.001.033 0 .05-.004a.187.187 0 00.139-.223c-.002-.006-.134-.634.165-1.007.158-.197.421-.293.78-.287a.187.187 0 00.006-.373c-.478-.008-.839.135-1.072.426-.412.515-.245 1.29-.238 1.323.019.083.09.141.17.145z" fill="#fff"/><path d="M262.881 626.743a.164.164 0 00.075-.012l.157-.061c1.007-.394 1.959-.766 3.012.028a.182.182 0 00.257-.038.19.19 0 00-.038-.261c-1.215-.917-2.307-.49-3.363-.077l-.156.061a.186.186 0 00-.106.24.182.182 0 00.162.12zm-1.615-1.104a.187.187 0 00.189-.228c-.002-.006-.134-.634.165-1.006.158-.197.421-.294.78-.288a.185.185 0 00.187-.183.186.186 0 00-.181-.19c-.478-.008-.839.136-1.072.427-.411.514-.245 1.29-.237 1.322a.185.185 0 00.169.146z" fill="#fff"/><path d="M260.101 624.797a.197.197 0 00.075-.012l.157-.062c1.007-.393 1.959-.765 3.012.029a.182.182 0 00.257-.039.188.188 0 00-.039-.261c-1.215-.916-2.306-.489-3.362-.077l-.156.061a.187.187 0 00.056.361zm-.399-.204a.17.17 0 00.05-.004.187.187 0 00.139-.223c-.003-.015-.132-.637.165-1.006.158-.197.421-.294.78-.288a.185.185 0 00.187-.183.186.186 0 00-.181-.19c-.478-.008-.839.135-1.072.427-.411.514-.245 1.289-.237 1.322a.182.182 0 00.169.145z" fill="#fff"/><path d="M258.537 623.752a.192.192 0 00.074-.012l.157-.062c1.008-.394 1.959-.765 3.012.028a.18.18 0 00.257-.038.19.19 0 00-.038-.261c-1.215-.916-2.307-.49-3.362-.077l-.157.061a.189.189 0 00-.106.241.186.186 0 00.163.12z" fill="#fff"/><path d="M271.762 496.444c1.896 2.328 3.889 21.786 1.308 22.314-2.581.527-4.073-9.054-6.416-16.915-2.404-8.062 3.211-7.727 5.108-5.399z" fill="#FFD4D5"/><path d="M271.465 515.518c-3.023 1.261 1.213 23.44 3.016 23.305 1.614-.122 1.36-16.637.127-20.783-1.234-4.146-3.143-2.522-3.143-2.522z" fill="#FFD4D5"/><path d="M276.545 537.537c-.166-1.091-1.057-2.709-2.796-2.813-1.805-.108-2.365 2.781-2.339 3.402.172 4.229 1.699 4.566 3.158 4.789 1.46.223 2.324-3.108 1.977-5.378z" fill="#FFD4D5"/><path d="M270.551 522.781s11.625-6.917 7.893-11.293c-3.2-3.752-2.007-16.88-12.495-17.59-1.101-.074 1.375 26.548 4.602 28.883z" fill="#A6C45A"/><path opacity=".1" d="M270.792 502.334s1.587 1.705 1.94 2.98c.785 2.84 1.313 14.225-1.821 15.605-3.134 1.38-.119-18.585-.119-18.585z" fill="#000"/><path d="M272.794 541.463s-.628-9.772-1.313-10.593c-.633-.76-.101-3.816-.656-3.815-.293.001-4.614 3.053-11.503 2.904-3.926-.086-7.216.014-7.365.166-.15.152-.365 3.56-.365 3.56-1.299.352-4.977 11.989-1.272 16.102 3.618 4.017 22.474-8.324 22.474-8.324z" fill="#EFEFEF"/><path d="M272.434 509.234c.473-3.334-2.026-10.23-6.485-15.336-6.88.146-7.263.992-9.748 2.066-2.484 1.074-5.122 5.404-5.357 8.099-.135 1.545-.231 3.653-.225 4.656.023 4.036.9 5.153.367 15.165-.085 1.592-1.184 6.192-2.129 10.292-.719 3.121-.793 2.227-.817 3.224 1.52.875.055 6.629.841 5.012.933-1.917 4.783-2.157 7.652-5.641 1.053-1.279 2.922-4.441 3.485-4.744 1.504-.808 5.444-2.474 7.347-2.993.301-.082.79.404 1.394 1.031.654.68 1.178.781 1.649 1.203.47.422 1.031 1.221 1.216 1.715.28.746.962 1.987 1.171 1.548.666-1.394-.704-4.372-.852-6.574-.155-2.295-.099-1.612-.533-4.169-1.923-11.332.191-8.684 1.024-14.554z" fill="#A6C45A"/><path opacity=".1" d="M256.191 521.853c-.241-8.505-3.209-11.833-5.573-13.134.023 4.036.9 5.153.367 15.165-.084 1.592-1.184 6.192-2.129 10.292 3.532-1.139 7.566-4.209 7.335-12.323z" fill="#000"/><path d="M265.191 495.473c-.486-.559-1.046-.577-1.046-.577s-.354-2.285-.364-2.463l-5.103-.57s.209 3.693-.261 4.019c-.895.619-2.462.34-2 1.746.461 1.407 4.828 3.615 7.365 2.677 2.538-.937 1.895-4.273 1.409-4.832z" fill="#FFCACB"/><path d="M267.772 482.859c.057.781-.252 1.828-.299 2.344-.27 2.959.596 6.064.965 6.726.584 1.049-7.349-1.907-8.425-3.361-.683-.923-1.557-6.728-.149-11.392 0 0 7.851 4.902 7.908 5.683z" fill="#3C4358"/><path d="M266.796 484.072c.982 4.197.229 8.76-3.901 9.758-4.13.998-9.395-1.936-10.377-6.133-.983-4.196 1.569-8.408 5.699-9.406 4.13-.999 7.596 1.584 8.579 5.781z" fill="#FFD4D5"/><path d="M266.619 482.859s-3.645 2.598-6.921 2.906c-3.275.308-1.567 9.81-.983 10.859.585 1.049-7.348-1.907-8.424-3.361-1.076-1.454-2.628-15.02 5.015-17.161 10.974-3.074 11.313 6.757 11.313 6.757z" fill="#3C4358"/><path d="M266.502 481.656s-.083-6.406-6.092-6.635c-6.009-.228-7.726 1.388-9.301 3.976-1.576 2.588-1.549 4.061-1.324 4.558.225.496 4.224 3.943 9.429 2.827 5.205-1.115 6.838-3.125 7.288-4.726z" fill="#D4CDC4"/><path d="M257.373 486.366c-.276.066-.305.454-.041.561 1.957.793 7.091 3.047 8.351 2.016.757-.619 1.147-2.341 2.407-2.767 1.26-.427 4.64.513 3.799-.328-2.627-2.632-5.198-4.398-5.388-4.215-.09.087.073 1.027-2.305 2.405-1.693.981-5.312 1.969-6.823 2.328z" fill="#D6C2A5"/><path d="M263.708 540.927l.444 11.463s-5.616 5.413-15.237.902l1.762-12.432 13.031.067z" fill="#EFEFEF"/><path d="M272.228 534.854l1.17 12.488s-5.616 5.414-15.238.903l1.762-12.433 12.306-.958z" fill="#EFEFEF"/><path d="M247.492 502.858c-1.537 2.718-.673 23.164 1.957 23.286 2.63.122 2.71-10.03 3.883-18.543 1.202-8.73-4.303-7.462-5.84-4.743z" fill="#FFD4D5"/><path d="M248.429 521.427c-3.045 1.246.801 24.555 2.606 24.457 1.617-.088 1.653-17.375.492-21.743-1.16-4.368-3.098-2.714-3.098-2.714z" fill="#FFD4D5"/><path d="M253.573 545.568c-.091-1.092-.862-2.757-2.577-2.983-1.78-.234-2.531 2.588-2.549 3.205-.117 4.2 1.372 4.64 2.802 4.964 1.43.324 2.512-2.914 2.324-5.186z" fill="#FFD4D5"/><path opacity=".05" d="M263.21 528.184c.375-.455-2.114.902-2.385 1.798-.271.896-.581 1.771-.186 1.627.062-.022.56-.097.906-.389.378-.319-.088-1.132.256-1.423.345-.291 1.324-1.511 1.409-1.613zm-1.094-3.516c.474-.116 1.177.706 1.348 1.323.119.431 2.353 2.243 2.353 2.243l.38.239s.857.473 1.241.538c0 0-.412.107-.789.22-.782.237-1.703-1.335-2.443-1.451-.74-.116-2.564-2.997-2.09-3.112z" fill="#000"/><path d="M255.145 496.612c.112-.315-6.737 3.644-8.087 6.118-1.169 2.141-3.78 9.505-4.159 15.916-.179 3.014-1.427 4.195-1.27 5.977 0 0 6.107 6.522 12.788 3.705 0 0 .46-19.052 1.795-20.689 0 0-1.253-10.511-1.067-11.027z" fill="#A6C45A"/><path opacity=".05" d="M1806.61 1081.27c1.12-2.61-3.26-6.97-9.77-9.73-6.52-2.76-12.7-2.88-13.82-.27-1.12 2.61 3.26 6.97 9.78 9.73 6.51 2.76 12.7 2.88 13.81.27z" fill="#1A1A1A"/><path d="M1786.4 994.353c-1.47 2.393-2.14 18.687.35 18.827 2.49.15 3.14-7.19 4.31-14.727 1.19-7.734-3.18-6.494-4.66-4.1z" fill="#FFD3D4"/><path d="M1788.21 1009.91c2.86 1.17-1.15 21.77-2.86 21.64-1.53-.11-1.29-15.45-.12-19.3 1.17-3.85 2.98-2.34 2.98-2.34z" fill="#FFD3D4"/><path d="M1783.39 1030.36c.16-1.01 1-2.52 2.65-2.61 1.71-.1 2.24 2.58 2.22 3.16-.17 3.93-1.61 4.24-3 4.45-1.38.2-2.2-2.89-1.87-5z" fill="#FFD3D4"/><path d="M1793.19 991.11c-1.57.3-6.11 1.294-7.52 3.021-2.3 2.809-2.44 12.049-2.27 12.259.16.19 2.32 1.99 3.97 1.95 4.46-.1 5.82-17.23 5.82-17.23z" fill="#A6C45A"/><path opacity=".1" d="M1789.35 998.183s-1.57 1.168-1.76 2.387c-.44 2.88-1.33 6.7 1.64 7.98 2.97 1.29.12-10.367.12-10.367z" fill="#000"/><path d="M1789.28 1044.2c-1.33-5.03-2.7-33.08-.4-33.65 2.3-.58 6.22-1.98 7.56 1.4 1.34 3.38-1.91 32.37-2.92 33.1-1.02.72-3.47 2.09-4.24-.85z" fill="#FFD3D4"/><path d="M1793.71 1044.67c3.31 14.01-1.51 22.61.44 25.88.5.83-.46 2.11-1.85 2.03-1.41-.07-1.42-.43-2.2-1.06-.83-.67-.09-.99.36-1.35.49-.39-1.42-18.08-1.49-24.84-.01-.92-.08-2.17.03-2.63.16-.62 4.47.93 4.71 1.97z" fill="#FFD3D4"/><path d="M1795.4 1072.68c.24.39.54.92.3 1.3-.23.38-2.74 2.08-3.04 2.34-.29.27-.95 1.46-2.44 1.6-1.49.14-4.05-.39-4.11-.84-.06-.45 9.29-4.4 9.29-4.4z" fill="#EFEFEF"/><path d="M1791.76 1070.66c-.29.12-.72.41-1.18 1.15l-1.62-1.1s.61-.9 1.16-1.3a.636.636 0 00-.18-.06c-.53-.1-2.64 3.94-2.64 3.94s.07.43.52.45c.45.03 4.82-.76 4.84-1.78.03-.78-.52-1.12-.9-1.3z" fill="#A6C45A"/><path opacity=".05" d="M1791.76 1070.66c-.29.12-.72.41-1.18 1.15l-1.62-1.1s.61-.9 1.16-1.3a.636.636 0 00-.18-.06c-.53-.1-2.64 3.94-2.64 3.94s.07.43.52.45c.45.03 4.82-.76 4.84-1.78.03-.78-.52-1.12-.9-1.3z" fill="#000"/><path d="M1788.96 1070.71l1.62 1.1c.46-.74.89-1.03 1.18-1.15-.12-.06-.23-.1-.3-.13-.24-.12-.83-.88-1.34-1.12-.55.4-1.16 1.3-1.16 1.3z" fill="#EFEFEF"/><path d="M1791.04 1072.2h.02c.07-.06.13-.11.16-.14.31-.4.96-.61 1.94.05.5.35 1.29-.17 1.45-1.01.16-.8-.21-1.83-.21-1.83s-.44-.39-.66-.45c-.22-.07.04.79.25 1.44.22.64.09 1.25 0 1.46-.08.21-.45.4-.82.21-.37-.18-.99-.46-1.3-.48-.31-.03-1.03.42-1.14.53-.11.11.31.22.31.22z" fill="#CFCFCF"/><path d="M1794.4 1069.27s.37 1.03.21 1.83c0 .02-.01.04-.01.06.1.11.27.17.54.03.04-.1.07-.19.1-.27-.27-.75-.63-1.46-.84-1.65z" fill="#BFBFBF"/><path opacity=".05" d="M1786.59 1075.43c.42.23 1.75-.01 1.96-.01.2 0 .58.42.86.44.27.03.51-.12.48-.55-.03-.43-.69-.32-1.07-.32-.39 0-1.06-.42-1.24-.59-.18-.17-.82-.33-1.01-.45-.13-.08-.2-.25-.21-.42-.34.37-.66.68-.87.83-.03.02-.05.06-.09.08.24.02.53.06.62.16.15.18.15.6.57.83z" fill="#000"/><path d="M1795.24 1070.92c-.03.08-.06.17-.1.27-.27.14-.44.08-.54-.03-.19.8-.96 1.3-1.44.95-.97-.69-1.63-.45-1.94-.05-.32.4-3.78 2.13-3.78 1.23 0-.89 2.4-3.43 1.95-3.51-.46-.09-.86.74-1.14 1.36-.2.43-1.12 1.57-1.89 2.39-.34.37-.66.68-.87.83-.03.02-.05.06-.08.08-.56.51-.53 1.4-.53 1.74 0 .35 1.08.88 1.68 1.07.6.2 3.53-.03 4.55-.32 1.02-.29 1.56-1.38 1.97-1.73.08-.08.23-.2.4-.34.67-.54 1.81-1.5 2.03-2.12.14-.38-.03-1.12-.27-1.82z" fill="#A6C45A"/><path opacity=".05" d="M1795.24 1070.92c-.24.81-1.21 2.83-1.76 3.94.67-.54 1.81-1.5 2.03-2.12.14-.38-.03-1.12-.27-1.82z" fill="#000"/><path d="M1788.53 1070.44c-.14 0-.41.36-.67.79.62.28 2.66 1.21 2.65 1.36-.01.18-.24.41-.32.41-.07 0-1.93-1.05-2.59-1.35-.35.51-.54.97-.52.97.83 0 2.6 1.65 2.71 1.65.11 0 2.08-1.32 2.08-1.78 0-.46-3-2.05-3.34-2.05z" fill="#A6C45A"/><path opacity=".1" d="M1788.53 1070.44c-.14 0-.41.36-.67.79.62.28 2.66 1.21 2.65 1.36-.01.18-.24.41-.32.41-.07 0-1.93-1.05-2.59-1.35-.35.51-.54.97-.52.97.83 0 2.6 1.65 2.71 1.65.11 0 2.08-1.32 2.08-1.78 0-.46-3-2.05-3.34-2.05z" fill="#fff"/><path d="M1795.73 1073.33c.08.23.09.46-.03.65-.21.35-2.34 1.81-2.91 2.25-.08.06-.15.13-.22.19-.33.38-.99 1.37-2.35 1.5-1.11.11-2.82-.16-3.64-.49l-.21-.59c-.14-.29-.27-.6-.33-.72-.13-.24-.41-.38-.83-.47-.42-.08-.46.73-.46.73s.17.39.66.64c.61.3.67.24 1.48.61 1.28.57 3.21.56 3.78.49.56-.06 1.37-.77 1.39-.8.03-.03 1.08-1.09 1.49-1.36.4-.26 2.02-1.45 2.21-1.87a.87.87 0 00-.03-.76z" fill="#434856"/><path d="M1796.43 1048.27c-1.33-5.04-2.7-33.08-.4-33.66 2.3-.58 6.22-1.98 7.56 1.4 1.34 3.38-1.91 32.38-2.92 33.1-1.02.72-3.47 2.1-4.24-.84z" fill="#FFD3D4"/><path d="M1800.86 1048.73c3.31 14.02-1.51 22.62.44 25.88.5.84-.46 2.12-1.85 2.04-1.41-.08-1.42-.44-2.2-1.07-.83-.67-.09-.98.37-1.35.48-.38-1.43-18.08-1.5-24.83-.01-.93-.08-2.18.03-2.64.16-.61 4.47.94 4.71 1.97z" fill="#FFD3D4"/><path d="M1802.55 1076.73c.25.39.54.92.3 1.3-.23.38-2.74 2.08-3.03 2.34-.3.26-.96 1.46-2.45 1.6-1.48.14-4.05-.39-4.11-.84-.06-.45 9.29-4.4 9.29-4.4z" fill="#EFEFEF"/><path d="M1798.91 1074.71c-.29.12-.73.41-1.18 1.15l-1.62-1.1s.61-.9 1.16-1.3a.636.636 0 00-.18-.06c-.53-.11-2.64 3.94-2.64 3.94s.07.42.52.45c.45.03 4.81-.76 4.84-1.79.03-.77-.52-1.12-.9-1.29z" fill="#A6C45A"/><path opacity=".05" d="M1798.91 1074.71c-.29.12-.73.41-1.18 1.15l-1.62-1.1s.61-.9 1.16-1.3a.636.636 0 00-.18-.06c-.53-.11-2.64 3.94-2.64 3.94s.07.42.52.45c.45.03 4.81-.76 4.84-1.79.03-.77-.52-1.12-.9-1.29z" fill="#000"/><path d="M1796.11 1074.76l1.62 1.1c.45-.74.89-1.03 1.18-1.15-.12-.06-.23-.1-.3-.13-.24-.12-.83-.88-1.34-1.12-.55.4-1.16 1.3-1.16 1.3z" fill="#EFEFEF"/><path d="M1798.19 1076.25l.02-.01c.07-.05.13-.1.16-.13.31-.4.96-.61 1.94.05.5.35 1.29-.17 1.45-1.01.16-.8-.21-1.84-.21-1.84s-.44-.38-.66-.45c-.22-.06.04.8.26 1.45.21.64.08 1.25 0 1.46-.09.21-.46.4-.83.21-.37-.19-.99-.47-1.3-.49-.31-.02-1.03.42-1.14.54-.11.11.31.22.31.22z" fill="#CFCFCF"/><path d="M1801.55 1073.31s.37 1.04.21 1.84c0 .02-.01.04-.01.06.1.1.28.17.55.03.03-.1.07-.2.09-.27-.27-.76-.63-1.47-.84-1.66z" fill="#BFBFBF"/><path opacity=".05" d="M1793.74 1079.48c.42.23 1.75-.01 1.96-.01.2 0 .58.42.86.44.27.02.51-.12.48-.55-.03-.43-.69-.32-1.07-.32-.39 0-1.06-.43-1.24-.59-.18-.17-.82-.33-1.01-.45a.54.54 0 01-.21-.42c-.34.37-.66.68-.87.83-.03.02-.05.05-.08.08.24.02.52.06.61.16.15.17.15.6.57.83z" fill="#000"/><path d="M1802.39 1074.97c-.03.07-.06.17-.1.27-.27.14-.44.07-.54-.03-.19.8-.96 1.3-1.44.95-.97-.69-1.63-.45-1.94-.05-.32.39-3.78 2.13-3.78 1.23 0-.9 2.4-3.43 1.95-3.51-.46-.09-.86.73-1.14 1.36-.2.43-1.12 1.57-1.89 2.39-.34.37-.66.68-.86.83-.04.02-.06.05-.09.08-.56.5-.53 1.4-.53 1.73 0 .36 1.08.89 1.68 1.08.6.19 3.53-.03 4.55-.32 1.02-.29 1.56-1.38 1.97-1.74.08-.07.23-.19.4-.33.67-.55 1.82-1.5 2.03-2.13.14-.38-.03-1.11-.27-1.81z" fill="#A6C45A"/><path opacity=".05" d="M1802.39 1074.97c-.23.8-1.21 2.83-1.76 3.94.67-.55 1.82-1.5 2.03-2.13.14-.38-.03-1.11-.27-1.81z" fill="#000"/><path d="M1795.68 1074.49c-.14 0-.41.36-.67.78.62.28 2.66 1.22 2.65 1.37-.01.18-.24.41-.32.41-.07 0-1.93-1.05-2.59-1.35-.34.51-.54.97-.52.96.83 0 4.68 3 4.79 3 .11 0 2.08-1.32 2.08-1.78 0-.45-5.08-3.39-5.42-3.39z" fill="#A6C45A"/><path opacity=".1" d="M1795.68 1074.49c-.14 0-.41.36-.67.78.62.28 2.66 1.22 2.65 1.37-.01.18-.24.41-.32.41-.07 0-1.93-1.05-2.59-1.35-.34.51-.54.97-.52.96.83 0 4.68 3 4.79 3 .11 0 2.08-1.32 2.08-1.78 0-.45-5.08-3.39-5.42-3.39z" fill="#fff"/><path d="M1802.88 1077.38c.08.23.09.46-.03.65-.21.35-2.34 1.8-2.91 2.24-.08.07-.15.14-.22.2-.33.37-.99 1.37-2.35 1.5-1.11.1-2.82-.17-3.64-.5l-.21-.58c-.14-.29-.27-.6-.33-.73-.13-.24-.4-.38-.83-.46-.42-.09-.46.73-.46.73s.17.39.66.63c.61.31.67.25 1.48.61 1.28.57 3.22.56 3.78.5.56-.07 1.37-.77 1.39-.8.03-.03 1.08-1.1 1.49-1.36.4-.27 2.02-1.45 2.21-1.87.18-.42-.03-.76-.03-.76z" fill="#434856"/><path d="M1788.21 1011.44c-1.46 3.28-5.97 26.51-4.63 27.64 1.34 1.13 3.61.46 4.36 1.58.74 1.12-.61 2.46 2.99 2.56 3.59.1 3.35-.08 5.4 1.15 2.04 1.23 4.98-.96 6.1 0 1.13.96 6.61-2.25 6.46-3.02-.15-.77-1.43-24.17-3.4-27.95-.56-1.08-17.28-1.96-17.28-1.96z" fill="#A6C45A"/><path opacity=".05" d="M1788.21 1011.44c-1.46 3.28-5.97 26.51-4.63 27.64 1.34 1.13 3.61.46 4.36 1.58.74 1.12-.61 2.46 2.99 2.56 3.59.1 3.35-.08 5.4 1.15 2.04 1.23 4.98-.96 6.1 0 1.13.96 6.61-2.25 6.46-3.02-.15-.77-1.43-24.17-3.4-27.95-.56-1.08-17.28-1.96-17.28-1.96z" fill="#000"/><path opacity=".05" d="M1785.15 1039.7s4.36-24.05 5.36-24.05c0 0-.57 7.85-.36 8.14.21.29 1.15-.34 1.11.93-.03 1.27-3.43 15.75-3.43 15.75s-.33-.56-2.68-.77zm12.18-23.17c-.65 3.98-2.51 17.58-1.47 17.58 1.05 0-1.06 9.37-1.06 9.37l1.18.62s2.55-10.29 2.55-13.2-1.2-14.37-1.2-14.37zm4.89 27.11c0-1.1.9-12.69.9-15.54 0-2.85 1.25 4.84 1.04 6.16-.21 1.32-.56 10.21-.85 10.25-.72.11-.95-.25-1.05-.28-.11-.04-.04-.59-.04-.59z" fill="#000"/><path d="M1791.86 974.423c.48.716.46.912-1.11 1.309-5.75 1.458-5.83 8.454-6.12 7.978-.28-.476-1.2.615-1.42.426-.17-.156-1.29.412-1.68.619a.657.657 0 01-.14.075v.003-.002c-.04.012-.06.014-.07-.005-1.77-8.322 9.56-11.873 10.54-10.403z" fill="#3C4358"/><path d="M1805.67 1008.46c.1-1.92 1.54-7.11 1.13-8.605-.32-1.191-.34-2.6-1.33-3.76-2.17-2.537-6.17-5.146-11.47-5.068-5.31.078-6.23 9.273-6.17 12.693.06 3.3.3 3.79-.01 6.31-.96 7.61 18.45 4.79 18.02 2.8-.07-.37-.14-.78-.18-1.26-.07-.82-.08-1.84.01-3.11.2-2.74-.04.86 0 0z" fill="#A6C45A"/><path opacity=".05" d="M1800.9 1003.64c-1.01 7.74 1.78 7.93 4.76 7.93-.07-.82-.08-1.84.01-3.11-.05.86.2-2.74 0 0 .1-1.92 1.54-7.11 1.13-8.605-2.29.625-5.64 1.775-5.9 3.785z" fill="#000"/><path d="M1796.55 991.649c-1.7-.216-3.29-.211-3.91.192-.62.403-2.21 2.701 1.29 3.523 3.15.74 5.61-.291 5.69-1.643.07-1.351-.42-1.734-3.07-2.072z" fill="#FFC9CA"/><path d="M1793.67 989.474c-.49 1.829-1.37 3.782 0 4.402 1.36.62 5.94.304 5.72-.992-.12-.732.25-3.968-.15-4.34-.41-.372-5.57.93-5.57.93z" fill="#FFC9CA"/><path d="M1786.61 975.722c-1.51 6.328.7 12.485 5.92 14.011 6.27 1.832 12.72-2.423 14.24-8.75 1.51-6.328-1.19-11.138-7.54-12.643-6.35-1.505-11.11 1.054-12.62 7.382z" fill="#FFD3D4"/><path d="M1786.07 978.762c-.01.545 1.61-3.943 1.61-3.943.69 1.259 1.93 2.016 3.67 2.318l.96-2.288c.66 1.369 1.89 2.28 3.33 3.027l1.22-1.398s2.65 5.615 2.82 5.421c0 0 1.84-2.801 3.01-1.829 1.02.851 1.04 3.259.08 4.883-.77 1.302-1.8.155-1.79.461.11 3.209 1.63 2.165 1.63 2.165s3.61-1.832 5.36-9.29c2.82-12.027-21.34-20.437-21.9.473z" fill="#3C4358"/><path d="M1806.16 979.37c-.31-.187-.62-1.087-.06-1.49.56-.404 1.63-.528 1.65.709.03 1.237-1.52.823-1.59.781z" fill="#A6C45A"/><path d="M1806.85 977.99c-.79.347-1.01.623-.12 1.967 2.99 4.503 1.46 9.346 1.96 9.097.5-.248.68 1.164.96 1.118.23-.039.87 1.038 1.09 1.422.03.065.05.108.08.137v.007-.003c.02.029.04.044.06.03 5.98-6.071-2.41-14.489-4.03-13.775z" fill="#3C4358"/><path d="M1790.43 991.51c.67-.308 1.97-.458 2.76-.4-.36 1.639-1.3 2.488.74 4.253 0 0-2.53 1.318-3.74-.781-1.21-2.099.24-3.072.24-3.072zm11.5 1.453s-2.23-1.085-2.55-1.112c-.02.128 0 .444-.03.511-.8 1.952-3 2.736-5.42 3.002 0 0 2.22 2.377 4.44 1.657 2.23-.72 3.56-4.058 3.56-4.058z" fill="#EFF6FA"/><path d="M1807.27 1000.22c1.46 2.52.64 21.52-1.85 21.63-2.5.11-2.57-9.32-3.68-17.22-1.14-8.114 4.07-6.936 5.53-4.41z" fill="#FFD3D4"/><path d="M1806.38 1015.93c2.89 1.16-.76 22.81-2.47 22.72-1.53-.08-1.56-16.14-.46-20.2 1.1-4.05 2.93-2.52 2.93-2.52z" fill="#FFD3D4"/><path d="M1801.51 1038.35c.08-1.01.81-2.56 2.44-2.77 1.69-.21 2.4 2.41 2.41 2.98.12 3.9-1.3 4.31-2.65 4.61-1.36.3-2.38-2.7-2.2-4.82z" fill="#FFD3D4"/><path d="M1801.29 1002.66c.5 1.02-.66 8.57 1.39 9.39 2.67 1.08 6.84-1.79 6.84-1.79s-.83-8.3-1.53-10.07c-.64-1.593-3.25-5.15-4.1-5.59-.86-.44-4.14 4.95-2.6 8.06z" fill="#A6C45A"/><path opacity=".1" d="M1793.75 997.019c.17-.018.28-.268.24-.557-.03-.289-.19-.509-.36-.491-.16.019-.27.268-.24.557.03.289.19.509.36.491zm-.19 4.111c.17-.02.28-.27.25-.56-.04-.29-.2-.51-.36-.49-.17.02-.28.27-.25.56.03.28.19.5.36.49zm-.19 4.1c.17-.01.28-.26.25-.55-.04-.29-.2-.51-.36-.49-.17.01-.28.26-.25.55.03.29.19.51.36.49zm-.03 4.11c.16-.02.27-.27.24-.56-.03-.29-.19-.5-.36-.49-.17.02-.28.27-.24.56.03.29.19.51.36.49zm-.19 4.11c.16-.02.27-.27.24-.56-.03-.29-.19-.51-.36-.49-.17.02-.28.27-.24.56.03.29.19.51.36.49z" fill="#000"/><path d="M117.947 328.758c2.333 2.072 11.096 16.811 7.522 18.376-2.436 1.067-7.624-4.692-11.447-12.356-3.921-7.861 1.592-8.091 3.925-6.02z" fill="#FFD6D6"/><path d="M117.39 349.598s4.031-2.035 4.956-6.081c1.108-4.85 5.575-2.833 3.691-5.015-3.231-3.741-3.683-15.008-13.395-15.721-1.11-.081 1.49 24.488 4.748 26.817z" fill="#A6C45A"/><path opacity=".1" d="M118.919 348.556c1.809.26 1.297-15.641-.675-15.138-1.973.504.003 15.041.675 15.138z" fill="#000"/><path d="M123.037 345.979c-1.804-2.684 9.858-17.591 12.117-18.464.44-.169 1.906.578 1.803 1.708-.498 5.444-6.937 15.076-9.634 17.039-3.256 2.37-4.286-.283-4.286-.283z" fill="#FFD6D6"/><path d="M134.223 324.484c-.193.565-1.612 1.265-1.493 1.935.197 1.115 1.427 2.051 2.79 2.875 2.265 1.37 4.163-.204 4.579-1 1.809-3.457 1.418-4.084-1.35-5.269-1.998-.856-3.456-1.68-4.526 1.459z" fill="#FFD6D6"/><path opacity=".05" d="M95.534 463.022c3.94 2.283 13.518.432 21.396-4.133s11.071-10.116 7.132-12.399c-3.939-2.283-13.518-.432-21.396 4.133-7.877 4.565-11.07 10.117-7.132 12.399z" fill="#000"/><path d="M96.184 365.601s-4.222 2.868-1.673 13.47c2.55 10.602 19.358-2.949 19.358-2.949l-12.303-10.521h-5.382z" fill="#3C4358"/><path d="M112.012 453.498s.855-.187.945-.366c.089-.179-.636-.496-.636-.496l-.309.364v.498z" fill="#998E82"/><path d="M108.727 450.312c-.34-1.42-.373-2.9.607-4.191 1.637-2.157 4.421-1.253 5.936-.434 1.515.819 1.98 2.44 6.15 4.868 1.054.613 6.435 3.327 4.776 5.477-1.194 1.547-4.881 1.061-8.425.339-3.027-.617-4.858-3.583-5.584-3.398-.106.052.029.43-.175.525-.449.21-3.369-1.338-3.431-1.946-.055-.536-.086-.717.146-1.24z" fill="#4A4C57"/><path d="M110.969 436.607c-1.732 2.673.262 7.611-.933 9.272-1.525 2.12 2.359 3.981 3.266 3.802.213-.042-.166-.631-.283-1.094-.133-.526 2.98-1.837 3.524-1.468.311.21-.908-.701-1.621-1.104-.288-.162-.643-.408-.738-.521-.585-.699 1.187-7.373 1.5-8.137.314-.764-3.967-1.905-4.715-.75z" fill="#FFD3D4"/><path d="M106.786 403.017s1.088 22.142.939 39.948c-.009 1.01 3.832 2.173 4.916 2.223 1.325.06 4.829-1.145 4.725-3.019-.592-10.753 1.806-30.911 2.079-40.228.47-16.022-12.659 1.076-12.659 1.076z" fill="#3C4358"/><path d="M119.624 368.284c.12 25.005 1.717 46.01-6.469 46.496-10.514.625-6.491-30.581-7.589-41.497-1.495-14.86 14.026-11.729 14.058-4.999z" fill="#3C4358"/><path opacity=".1" d="M109.411 381.336c4.896-.005.853 29.795-1.708 44.474l1.708-44.474z" fill="#1A1A1A"/><path d="M99.966 460.412s.856-.187.945-.366c.089-.179-.636-.496-.636-.496l-.31.364v.498z" fill="#998E82"/><path d="M96.681 457.226c-.34-1.42-.373-2.9.607-4.191 1.637-2.157 4.421-1.253 5.936-.434 1.516.819 1.98 2.44 6.15 4.868 1.054.613 6.435 3.327 4.776 5.477-1.194 1.547-4.881 1.061-8.425.339-3.027-.617-4.857-3.583-5.584-3.398-.106.052.029.43-.175.525-.45.21-3.368-1.338-3.431-1.946-.055-.536-.086-.717.146-1.24z" fill="#4A4C57"/><path d="M98.922 443.521c-1.732 2.673.263 7.611-.932 9.272-1.525 2.12 2.358 3.981 3.266 3.802.213-.042-.166-.631-.283-1.094-.134-.526 2.98-1.837 3.524-1.469.31.211-.908-.7-1.621-1.103-.288-.162-.643-.408-.738-.521-.585-.699 1.186-7.373 1.5-8.137.313-.764-3.967-1.905-4.716-.75z" fill="#FFD3D4"/><path d="M95.364 409.775s1.088 22.143.939 39.949c-.009 1.01 3.832 2.173 4.916 2.222 1.325.06 4.828-1.144 4.725-3.018-.592-10.753 2.454-27.391 2.248-36.71-.16-7.253-12.828-2.443-12.828-2.443z" fill="#3C4358"/><path d="M109.708 374.315c.12 25.005.21 46.738-7.976 47.224-10.514.625-4.984-31.309-6.082-42.224-1.496-14.86 14.025-11.73 14.058-5z" fill="#3C4358"/><path d="M114.262 327.025l-.131-.732.131.732z" fill="#CDCDD5"/><path d="M119.04 333.775c.126-3.356-1.721-10.165-7.271-11.247-6.946.146-7.333.989-9.842 2.06-2.508 1.071-5.171 5.389-5.409 8.077-.136 1.54-.232 3.642-.227 4.642.023 4.025.909 5.139.371 15.123-.086 1.588-1.196 6.174-2.15 10.264-.726 3.112-1.866 7.667-1.891 8.661 1.534.873 3.275 1.281 5.03 2.258 1.848 1.029 3.725 2.606 6.022 2.688 3.478.124 6.269-2.847 10.548-3.999 3.463-.931 6.386-2.931 6.527-3.797.248-1.525-.848-3.615-.998-5.811-.156-2.289.315-4.814.058-7.389-1.146-11.506-.894-18.174-.768-21.53z" fill="#A6C45A"/><path opacity=".1" d="M101.918 350.405c-.244-8.482-3.24-11.801-5.627-13.098.023 4.025.909 5.14.37 15.123-.085 1.588-1.195 6.174-2.149 10.264 3.566-1.136 7.638-4.198 7.406-12.289z" fill="#000"/><path d="M112.298 323.548c-.491-.558-1.056-.575-1.056-.575s-.358-2.279-.368-2.456l-6.343-.569s.211 3.683-.264 4.008c-.904.618-2.485.339-2.019 1.742.466 1.402 6.065 3.604 8.627 2.669 2.562-.935 1.913-4.261 1.423-4.819z" fill="#FFC9CA"/><path d="M114.027 306.443c1.737 2.056.507 7.327.507 7.327s.858 6.174-4.632 8.332c-4.365 1.715-8.393-2.821-8.393-2.821s-6.546-11.829.966-14.952c7.511-3.124 9.814.058 11.552 2.114z" fill="#FFD3D4"/><path d="M109.177 301.362c-5.668-1.331-9.037 1.322-9.221 2.865-1.507.71-2.835 2.519-2.74 5.259.185 5.278 4.293 9.795 4.293 9.795s.883-1.536.088-1.367c-1.005.215-2.866-4.666-1.846-5.973 1.02-1.306 2.471 2.979 2.471 2.979l.862 1.14.186-2.878s.678-.307 1.798-2.195c.998-1.684 4.933-3.535 6.043-3.292 1.179.257 3.861 1.735 3.842 2.027l-.019 1.116s.638-.514.774-1.869c.138-1.377.145-6.039-6.531-7.607z" fill="#3C4358"/><path d="M92.818 337.293c-1.552 2.711-1.141 22.506 2.743 22.844 2.648.23 2.736-10.002 3.92-18.491 1.215-8.706-5.111-7.064-6.663-4.353z" fill="#FFD6D6"/><path d="M100.861 325.234c.114-.314-6.8 3.634-8.164 6.102-1.18 2.134-3.816 9.477-4.199 15.871-.18 3.005-1.44 4.183-1.281 5.96 0 0 4.545 3.514 12.909-.353 0 0 .465-14.951 1.813-16.584 0 0-1.265-10.481-1.078-10.996z" fill="#A6C45A"/><path d="M96.215 360.304c3.29.403 11.612-17.331 9.252-18.474-2.761-1.336-9.618 10.206-10.688 14.588-1.07 4.381 1.436 3.886 1.436 3.886z" fill="#FFD3D4"/><path d="M101.775 338.297c.031.563.504 3.147.518 5.061.01 1.526 3.16 1.272 3.428.761.656-1.249 4.211-3.879 1.628-7.137-2.543-3.208-5.757-1.926-5.574 1.315z" fill="#FFD3D4"/></svg>