<svg width="886" height="427" fill="none" xmlns="http://www.w3.org/2000/svg"><path d="M727.151 71.937c-1.234 0-2.839-.462-4.814-1.388-1.975-.926-4.136-2.438-6.481-4.537-5.987-5.431-8.981-13.147-8.981-23.146 0-3.086.34-6.882 1.019-11.388.37-2.715.555-4.567.555-5.555 0-1.48-.278-2.808-.833-3.98-.494-1.235-1.389-2.439-2.685-3.611-.37-.309-.556-.556-.556-.741 0-.185.124-.309.371-.37.247-.124.494-.186.74-.186 1.235 0 2.624.402 4.167 1.204 1.605.74 2.962 1.76 4.073 3.055 1.111 1.235 1.667 2.5 1.667 3.796 0 .803-.154 1.728-.463 2.778a42.632 42.632 0 01-.926 3.148c-.802 2.592-1.419 4.814-1.851 6.666-.371 1.851-.556 4.011-.556 6.48 0 3.333.617 6.358 1.852 9.074 1.296 2.654 2.777 4.752 4.444 6.295 1.728 1.482 3.209 2.222 4.444 2.222.74 0 1.234-.648 1.481-1.944.556-2.654 1.142-5 1.759-7.036.679-2.037 1.204-3.426 1.574-4.167.185-.432.401-.802.648-1.11.247-.371.463-.556.648-.556s.278.185.278.555c0 .309-.062.834-.185 1.574-.617 3.148-.926 6.018-.926 8.61 0 .926.031 1.821.093 2.685.061.803.123 1.451.185 1.945.061 1.172.401 2.5 1.018 3.98.494 1.482.741 2.5.741 3.056 0 .802-.216 1.45-.648 1.944-.432.432-1.05.648-1.852.648zm38.422-24.627c-1.234 0-2.098-.247-2.592-.74-.432-.494-.803-1.173-1.111-2.037-.062-.124-.617-2.099-1.667-5.926-.987-3.888-2.962-6.573-5.925-8.054-1.42-.741-3.333-1.111-5.74-1.111h-1.111c-.556 0-.833-.186-.833-.556 0-.247.308-.494.925-.74.247-.124.834-.278 1.76-.463a17.6 17.6 0 013.24-.278c4.32 0 8.055 1.512 11.203 4.536 2.222 2.099 3.734 4.198 4.536 6.296.803 2.037 1.204 3.61 1.204 4.722 0 1.11-.371 2.13-1.111 3.055-.679.864-1.605 1.296-2.778 1.296zm66.01 173.127c2.099 0 4.043.586 5.833 1.759 1.852 1.111 2.777 2.469 2.777 4.074 0 .679-.216 1.203-.648 1.573-.37.309-.864.463-1.481.463-1.296 0-3.024-.216-5.185-.648-.432-.061-1.265-.185-2.499-.37-1.235-.185-2.253-.278-3.056-.278-1.851 0-3.641.247-5.369.741-1.667.432-2.871.833-3.611 1.204-2.531 1.357-4.815 4.073-6.851 8.147-1.976 4.074-3.519 8.579-4.63 13.517-1.049 4.938-1.574 9.258-1.574 12.962 0 6.234 1.05 10.616 3.148 13.147 2.161 2.468 5.401 3.703 9.722 3.703l2.592-.185c1.852-.247 3.271-.371 4.259-.371 4.444 0 6.666 1.081 6.666 3.241 0 1.605-1.266 2.685-3.796 3.24a38.132 38.132 0 01-7.499.741c-5.123 0-9.166-.833-12.129-2.5-2.901-1.666-4.968-4.197-6.203-7.592-1.234-3.394-1.852-7.838-1.852-13.332 0-7.036 1.358-13.671 4.074-19.905 2.778-6.296 6.265-11.45 10.462-15.462l-.741.186c-1.728.37-4.197 1.203-7.406 2.499-3.148 1.235-7.191 2.901-12.129 5l-3.981 1.666c-.494.247-1.574.803-3.24 1.667a57.792 57.792 0 01-2.778 1.389 5.1 5.1 0 01-2.129.463c-1.543 0-3.21-.71-5-2.13-1.728-1.42-3.055-2.839-3.981-4.259-.308-.432-.463-.802-.463-1.111 0-.247.093-.463.278-.648a.888.888 0 01.648-.278c.37 0 .772.124 1.204.371.123.061.648.37 1.574.926.925.493 2.067.74 3.425.74.309 0 .833-.061 1.574-.185.185-.062 2.068-.679 5.648-1.852 6.913-2.345 13.239-4.351 18.979-6.018 5.802-1.728 11.141-2.9 16.017-3.518a13.054 13.054 0 002.685-.648c.864-.37 1.42-.617 1.667-.74 1.851-.926 3.518-1.389 4.999-1.389zm24.998-1.019c-.556 0-1.142-.185-1.759-.555-.556-.432-1.019-1.049-1.389-1.852-.741-1.605-1.543-2.87-2.407-3.796-.803-.987-1.944-1.944-3.426-2.87a7.425 7.425 0 00-1.203-.648 25.45 25.45 0 00-1.019-.648c-.247-.247-.37-.494-.37-.741 0-.37.37-.555 1.111-.555 1.358 0 3.086.37 5.185 1.111 2.16.679 4.042 1.697 5.647 3.055 1.667 1.296 2.5 2.839 2.5 4.629 0 1.05-.309 1.79-.926 2.222-.555.432-1.204.648-1.944.648zm-10.184 6.018c-.618 0-1.266-.185-1.945-.555-.679-.432-1.172-1.111-1.481-2.037-.617-1.79-1.389-3.302-2.315-4.537-.864-1.296-2.036-2.407-3.518-3.333a18.154 18.154 0 00-.926-.555c-.37-.247-.648-.463-.833-.648-.185-.185-.278-.371-.278-.556 0-.432.309-.648.926-.648.679 0 2.13.371 4.352 1.111a20.523 20.523 0 016.203 3.241c1.913 1.419 2.87 3.178 2.87 5.277 0 1.049-.309 1.852-.926 2.407-.617.556-1.327.833-2.129.833zm-71.601-50.725c-.926 0-1.389-.247-1.389-.741s.432-.802 1.296-.926c7.468-.679 14.258-2.469 20.368-5.37 6.173-2.962 11.018-6.604 14.536-10.925 3.518-4.32 5.277-8.857 5.277-13.609 0-3.642-.833-6.728-2.499-9.259-1.605-2.592-3.704-4.536-6.296-5.833-2.592-1.296-5.277-1.944-8.055-1.944-3.703 0-7.561.926-11.573 2.778-3.95 1.851-6.974 3.518-9.073 4.999-2.037 1.482-4.691 3.488-7.962 6.018-.432.309-1.358 1.049-2.778 2.222-1.419 1.173-2.839 2.16-4.259 2.963-1.419.741-2.715 1.111-3.888 1.111-1.481 0-3.086-.494-4.814-1.481-1.667-1.05-3.117-2.099-4.352-3.148-1.049-.864-1.574-1.543-1.574-2.037s.401-.741 1.204-.741c.432 0 1.296.093 2.592.278 1.358.123 2.315.185 2.87.185 1.914 0 3.796-.463 5.648-1.389 1.852-.926 4.32-2.376 7.407-4.351 3.271-2.099 6.203-3.827 8.795-5.185 2.654-1.419 5.771-2.623 9.351-3.611 3.58-1.049 7.499-1.573 11.758-1.573 4.135 0 8.024.956 11.666 2.87 3.641 1.851 6.542 4.475 8.702 7.869 2.222 3.333 3.333 7.129 3.333 11.388 0 3.21-.956 6.82-2.87 10.832-1.913 3.951-6.295 7.839-13.147 11.666-6.851 3.765-16.942 6.079-30.274 6.944zm89.593 206.76c6.666 2.962 11.85 6.882 15.554 11.758 3.765 4.814 5.647 9.814 5.647 14.998 0 3.642-.957 6.852-2.87 9.629-1.852 2.778-4.32 4.907-7.407 6.388-3.086 1.482-6.388 2.222-9.906 2.222-6.234 0-10.647-1.913-13.239-5.74-2.531-3.888-3.796-8.95-3.796-15.184 0-2.654.03-4.629.092-5.925-2.16-.741-3.919-1.666-5.277-2.777-1.296-1.173-1.944-2.562-1.944-4.167 0-3.58 3.117-8.147 9.351-13.702a239.202 239.202 0 011.666-8.888 52.733 52.733 0 01-5.925-2.87c-1.79-1.049-3.117-2.006-3.981-2.87l-.556-.556c-.247-.247-.37-.463-.37-.648 0-.37.185-.555.555-.555.124 0 .556.123 1.297.37 1.481.556 3.363 1.049 5.647 1.481 2.346.432 3.765.71 4.259.834.802-4.136 1.204-7.376 1.204-9.722 0-2.16-.34-4.042-1.019-5.647-.679-1.543-1.419-2.716-2.222-3.518-.37-.371-.555-.679-.555-.926 0-.432.339-.648 1.018-.648s1.512.216 2.5.648a11.08 11.08 0 012.777 1.759c2.222 1.852 3.333 3.919 3.333 6.203 0 .741-.123 1.543-.37 2.407-.247.864-.648 2.006-1.204 3.426a70.39 70.39 0 00-2.222 6.666c2.161.494 4.043 1.049 5.648 1.666 1.173.494 2.037 1.204 2.592 2.13.618.925.926 1.82.926 2.685 0 .74-.247 1.357-.741 1.851-.493.494-1.049.772-1.666.833-3.21.247-6.357 1.358-9.444 3.334-1.111 6.11-1.82 11.727-2.129 16.85l.926.092c1.79.247 4.104.371 6.944.371 1.728 0 3.086.216 4.073.648.988.432 1.482 1.296 1.482 2.592 0 1.111-.494 1.821-1.482 2.129-.926.309-2.006.463-3.24.463-2.716 0-5.679-.37-8.888-1.111v.926c0 6.358.895 11.265 2.685 14.721 1.851 3.456 5.431 5.185 10.739 5.185 2.716 0 5.185-.587 7.407-1.759 2.222-1.235 3.981-2.994 5.277-5.278 1.358-2.283 2.037-4.937 2.037-7.962 0-4.012-1.512-8.178-4.536-12.499-3.025-4.382-6.882-8.147-11.573-11.295-.741-.494-1.111-.895-1.111-1.203 0-.186.154-.278.463-.278.432 0 .956.154 1.574.463zm-9.166-10.184l-.556 2.777-.463 2.037a41.013 41.013 0 002.408-1.852c.74-.679 1.111-1.172 1.111-1.481 0-.247-.186-.463-.556-.648a2.854 2.854 0 00-1.111-.463 9.7 9.7 0 01-.648-.278l-.185-.092zm-10.647 19.442c0 1.667 1.388 2.932 4.166 3.796.309-3.95.802-8.394 1.481-13.332-1.728 1.605-3.117 3.302-4.166 5.092-.988 1.79-1.481 3.271-1.481 4.444zM170.197 76.937c-5.802 0-10.925-1.111-15.369-3.333-4.382-2.222-6.573-6.327-6.573-12.314 0-4.814 1.327-8.795 3.981-11.943 2.716-3.148 5.956-5.895 9.721-8.24-2.469-1.728-4.228-3.703-5.277-5.925-.988-2.222-1.481-5.062-1.481-8.518 0-3.148.432-6.697 1.296-10.647.679-3.086 1.018-5.71 1.018-7.87 0-1.358-.154-2.469-.463-3.333-.308-.864-.833-1.666-1.574-2.407a10.368 10.368 0 00-1.296-1.11c-.37-.371-.555-.618-.555-.742 0-.37.432-.555 1.296-.555.617 0 1.358.123 2.222.37.864.185 1.605.432 2.222.741 1.605.802 2.716 1.728 3.333 2.778.679 1.049 1.018 2.468 1.018 4.258 0 1.05-.123 2.099-.37 3.148a39.31 39.31 0 01-.833 2.87 65.73 65.73 0 01-.648 1.76c-.062.184-.309.863-.741 2.036a21.23 21.23 0 00-1.389 4.074c-.308 1.296-.463 2.932-.463 4.907 0 1.79.278 3.549.834 5.277.617 1.667 1.388 3.055 2.314 4.166.926 1.05 1.883 1.574 2.87 1.574.679 0 1.605-.216 2.778-.648a42.87 42.87 0 003.518-1.481c2.469-1.173 4.104-1.76 4.907-1.76 1.173 0 2.314.371 3.425 1.112 1.173.679 1.76 1.389 1.76 2.13 0 1.11-.433 1.913-1.297 2.406-.864.494-2.222.895-4.073 1.204-5.494.988-10.802 2.808-15.925 5.462-5.123 2.654-7.684 7.13-7.684 13.425 0 3.21 1.173 5.894 3.518 8.055 2.346 2.16 5.864 3.24 10.555 3.24 1.604 0 3.209-.123 4.814-.37s2.561-.401 2.87-.463c2.839-.494 4.845-.74 6.018-.74 3.456 0 5.185 1.018 5.185 3.054 0 1.42-1.389 2.5-4.167 3.24-2.777.742-6.542 1.112-11.295 1.112zm23.702-64.16c-1.111 0-2.161-.525-3.148-1.574-1.235-1.42-2.346-2.5-3.333-3.24-.988-.741-2.315-1.39-3.981-1.945a43.086 43.086 0 00-1.389-.37 29.461 29.461 0 01-1.204-.37c-.308-.186-.463-.402-.463-.649.062-.679 1.513-1.018 4.352-1.018 2.654 0 5.308.555 7.962 1.666 2.654 1.05 3.981 2.654 3.981 4.815 0 .864-.309 1.543-.926 2.036-.617.432-1.234.649-1.851.649zm-8.888 8.054c-.618 0-1.235-.154-1.852-.463-.556-.308-1.019-.802-1.389-1.481-.926-1.605-1.944-2.963-3.055-4.074-1.111-1.11-2.5-1.975-4.166-2.592a11.917 11.917 0 01-1.574-.648c-.494-.247-.741-.525-.741-.833 0-.494.617-.741 1.852-.741 1.419 0 3.209.247 5.37.74 2.222.433 4.197 1.266 5.925 2.5 1.79 1.173 2.685 2.778 2.685 4.815 0 .926-.309 1.635-.926 2.13-.617.431-1.327.647-2.129.647zM58.698 213.238c2.099 0 4.043.587 5.833 1.759 1.851 1.111 2.777 2.469 2.777 4.074 0 .679-.216 1.204-.648 1.574-.37.309-.864.463-1.481.463-1.296 0-3.025-.216-5.185-.648-.432-.062-1.265-.185-2.5-.37-1.234-.186-2.252-.278-3.055-.278a19.48 19.48 0 00-5.37.74c-1.666.433-2.87.834-3.61 1.204-2.531 1.358-4.815 4.074-6.852 8.147-1.975 4.074-3.518 8.58-4.629 13.518-1.05 4.937-1.574 9.258-1.574 12.961 0 6.234 1.05 10.617 3.148 13.147 2.16 2.469 5.4 3.704 9.721 3.704l2.593-.186c1.851-.247 3.271-.37 4.258-.37 4.444 0 6.667 1.08 6.667 3.24 0 1.605-1.266 2.685-3.796 3.241a38.128 38.128 0 01-7.5.741c-5.123 0-9.165-.834-12.128-2.5-2.901-1.667-4.969-4.197-6.203-7.592-1.235-3.395-1.852-7.839-1.852-13.332 0-7.036 1.358-13.672 4.074-19.906 2.777-6.295 6.265-11.449 10.462-15.461l-.74.185c-1.73.37-4.198 1.204-7.408 2.5-3.147 1.234-7.19 2.901-12.128 4.999l-3.981 1.667c-.494.247-1.574.802-3.24 1.666a55.886 55.886 0 01-2.778 1.389 5.083 5.083 0 01-2.13.463c-1.543 0-3.209-.71-4.999-2.129-1.728-1.42-3.055-2.84-3.981-4.259-.309-.432-.463-.803-.463-1.111 0-.247.093-.463.278-.648a.89.89 0 01.648-.278c.37 0 .771.123 1.203.37.124.062.649.371 1.574.926.926.494 2.068.741 3.426.741.309 0 .833-.062 1.574-.185.185-.062 2.068-.679 5.648-1.852 6.912-2.345 13.239-4.351 18.98-6.018 5.801-1.728 11.14-2.901 16.016-3.518a13.2 13.2 0 002.685-.648c.864-.371 1.42-.617 1.667-.741 1.851-.926 3.518-1.389 4.999-1.389zm24.997-1.018c-.555 0-1.141-.185-1.759-.556-.555-.432-1.018-1.049-1.388-1.851-.741-1.605-1.543-2.87-2.407-3.796-.803-.988-1.945-1.944-3.426-2.87a7.44 7.44 0 00-1.204-.648c-.37-.247-.71-.463-1.018-.648-.247-.247-.37-.494-.37-.741 0-.37.37-.556 1.11-.556 1.358 0 3.087.371 5.185 1.111 2.16.679 4.043 1.698 5.648 3.056 1.666 1.296 2.5 2.839 2.5 4.629 0 1.049-.309 1.79-.926 2.222-.556.432-1.204.648-1.945.648zm-10.184 6.018c-.617 0-1.265-.185-1.944-.556-.679-.432-1.173-1.111-1.481-2.036-.617-1.79-1.389-3.303-2.315-4.537-.864-1.296-2.037-2.407-3.518-3.333a18.012 18.012 0 00-.926-.556c-.37-.246-.648-.462-.833-.648-.185-.185-.278-.37-.278-.555 0-.432.309-.648.926-.648.679 0 2.13.37 4.351 1.111a20.509 20.509 0 016.204 3.24c1.913 1.42 2.87 3.179 2.87 5.277 0 1.05-.309 1.852-.926 2.408-.618.555-1.327.833-2.13.833zm32.173-83.061c-.309 0-.463-.123-.463-.37 0-.309.185-.648.556-1.018 1.049-1.05 2.407-2.253 4.073-3.611.988-.864 1.883-1.667 2.685-2.407.803-.741 1.204-1.204 1.204-1.389 0-.679-1.266-1.234-3.796-1.667-2.222-.432-4.352-1.327-6.388-2.684-2.037-1.42-3.58-2.747-4.63-3.982a8.624 8.624 0 01-.74-1.111c-.185-.432-.278-.802-.278-1.111 0-.246.062-.37.185-.37l.37.093.834.555c.432.185 1.018.463 1.759.833 1.481.741 3.333 1.358 5.555 1.852 2.222.494 4.197.741 5.925.741 1.667 0 3.58-.155 5.74-.463 2.222-.247 3.765-.37 4.63-.37.74 0 1.388.092 1.944.277.926.309 1.821.957 2.685 1.945.864.925 1.296 1.944 1.296 3.055 0 .74-.34 1.296-1.019 1.666-.617.371-2.036.679-4.258.926-5.123.679-10.617 3.333-16.48 7.962-.617.432-1.08.648-1.389.648zm9.444 43.144c-4.383 0-8.426-.37-12.129-1.111-3.641-.802-6.573-2.067-8.795-3.796-2.84-2.222-4.26-5.277-4.26-9.165 0-1.729.186-3.148.556-4.259.37-1.173.741-1.759 1.111-1.759.494 0 .741.586.741 1.759v1.389c0 3.826 2.253 6.604 6.759 8.332 2.962 1.111 6.604 1.667 10.924 1.667 3.519 0 8.426-.525 14.721-1.574 3.642-.556 5.987-.834 7.037-.834 1.604 0 2.808.309 3.61.926.864.617 1.297 1.451 1.297 2.5 0 1.728-1.544 3.055-4.63 3.981-1.851.556-4.32 1.018-7.406 1.389-3.025.37-6.203.555-9.536.555zM43.514 362.275c6.666 2.963 11.85 6.882 15.554 11.758 3.765 4.815 5.648 9.814 5.648 14.999 0 3.641-.957 6.851-2.87 9.628-1.852 2.778-4.321 4.907-7.407 6.389-3.086 1.481-6.388 2.222-9.907 2.222-6.233 0-10.647-1.914-13.239-5.74-2.53-3.889-3.796-8.95-3.796-15.184 0-2.654.031-4.629.093-5.926-2.16-.74-3.92-1.666-5.278-2.777-1.296-1.173-1.944-2.562-1.944-4.166 0-3.58 3.117-8.148 9.351-13.703a239.138 239.138 0 011.667-8.888 52.738 52.738 0 01-5.926-2.87c-1.79-1.049-3.117-2.006-3.98-2.87-.124-.123-.31-.308-.556-.555-.247-.247-.37-.463-.37-.648 0-.371.184-.556.555-.556.123 0 .555.123 1.296.37 1.481.556 3.364 1.05 5.648 1.482 2.345.432 3.765.71 4.258.833.803-4.135 1.204-7.376 1.204-9.721 0-2.161-.34-4.043-1.018-5.648-.68-1.543-1.42-2.716-2.222-3.518-.37-.37-.556-.679-.556-.926 0-.432.34-.648 1.018-.648.68 0 1.513.216 2.5.648a11.103 11.103 0 012.778 1.759c2.222 1.852 3.333 3.92 3.333 6.203 0 .741-.124 1.543-.37 2.407-.247.865-.649 2.006-1.204 3.426a70.248 70.248 0 00-2.222 6.666c2.16.494 4.043 1.049 5.648 1.667 1.172.493 2.036 1.203 2.592 2.129.617.926.926 1.821.926 2.685 0 .741-.247 1.358-.741 1.852-.494.493-1.05.771-1.666.833-3.21.247-6.358 1.358-9.444 3.333-1.111 6.11-1.82 11.727-2.13 16.85l.926.093c1.79.246 4.105.37 6.944.37 1.728 0 3.086.216 4.074.648.987.432 1.481 1.296 1.481 2.592 0 1.111-.494 1.821-1.481 2.13-.926.308-2.006.463-3.24.463-2.716 0-5.68-.371-8.889-1.111v.926c0 6.357.895 11.264 2.685 14.72 1.852 3.457 5.432 5.185 10.74 5.185 2.716 0 5.185-.586 7.407-1.759 2.222-1.235 3.98-2.994 5.277-5.277 1.358-2.284 2.037-4.938 2.037-7.963 0-4.011-1.512-8.178-4.537-12.498-3.024-4.383-6.882-8.148-11.573-11.295-.74-.494-1.11-.895-1.11-1.204 0-.185.154-.278.462-.278.432 0 .957.154 1.574.463zm-9.166-10.184l-.555 2.777-.463 2.037a40.815 40.815 0 002.407-1.851c.74-.679 1.111-1.173 1.111-1.482 0-.247-.185-.463-.556-.648a2.854 2.854 0 00-1.11-.463 9.39 9.39 0 01-.649-.278l-.185-.092zm-10.647 19.442c0 1.667 1.389 2.932 4.166 3.796.309-3.95.803-8.394 1.482-13.332-1.729 1.605-3.117 3.302-4.166 5.092-.988 1.79-1.482 3.272-1.482 4.444z" fill="#fff"/></svg>