<svg width="886" height="427" viewBox="0 0 886 427" fill="none" xmlns="http://www.w3.org/2000/svg">
<path d="M727.151 71.9374C725.917 71.9374 724.312 71.4745 722.337 70.5487C720.362 69.6228 718.201 68.1107 715.856 66.0121C709.869 60.5805 706.875 52.8652 706.875 42.8662C706.875 39.7801 707.215 35.9842 707.894 31.4784C708.264 28.7626 708.449 26.911 708.449 25.9234C708.449 24.4421 708.171 23.115 707.616 21.9423C707.122 20.7079 706.227 19.5043 704.931 18.3316C704.561 18.023 704.375 17.7761 704.375 17.5909C704.375 17.4057 704.499 17.2823 704.746 17.2206C704.993 17.0971 705.24 17.0354 705.486 17.0354C706.721 17.0354 708.11 17.4366 709.653 18.239C711.258 18.9796 712.615 19.9981 713.726 21.2942C714.837 22.5287 715.393 23.794 715.393 25.0902C715.393 25.8926 715.239 26.8184 714.93 27.8677C714.683 28.8552 714.375 29.9045 714.004 31.0155C713.202 33.6079 712.585 35.8299 712.153 37.6815C711.782 39.5332 711.597 41.6935 711.597 44.1624C711.597 47.4954 712.214 50.5198 713.449 53.2356C714.745 55.8896 716.226 57.9882 717.893 59.5312C719.621 61.0126 721.102 61.7532 722.337 61.7532C723.077 61.7532 723.571 61.1052 723.818 59.809C724.374 57.1549 724.96 54.8095 725.577 52.7726C726.256 50.7358 726.781 49.3471 727.151 48.6064C727.336 48.1743 727.552 47.804 727.799 47.4954C728.046 47.125 728.262 46.9399 728.447 46.9399C728.632 46.9399 728.725 47.125 728.725 47.4954C728.725 47.804 728.663 48.3286 728.54 49.0693C727.923 52.2171 727.614 55.0872 727.614 57.6796C727.614 58.6054 727.645 59.5004 727.707 60.3645C727.768 61.1669 727.83 61.815 727.892 62.3087C727.953 63.4815 728.293 64.8085 728.91 66.2898C729.404 67.7712 729.651 68.7896 729.651 69.3451C729.651 70.1475 729.435 70.7956 729.003 71.2894C728.571 71.7214 727.953 71.9374 727.151 71.9374ZM765.573 47.3102C764.339 47.3102 763.475 47.0633 762.981 46.5695C762.549 46.0758 762.178 45.3968 761.87 44.5327C761.808 44.4093 761.253 42.4341 760.203 38.6074C759.216 34.7189 757.241 32.0339 754.278 30.5526C752.858 29.8119 750.945 29.4416 748.538 29.4416H747.427C746.871 29.4416 746.594 29.2564 746.594 28.8861C746.594 28.6392 746.902 28.3923 747.519 28.1454C747.766 28.022 748.353 27.8677 749.279 27.6825C750.266 27.4973 751.346 27.4048 752.519 27.4048C756.839 27.4048 760.574 28.9169 763.722 31.9413C765.944 34.0399 767.456 36.1385 768.258 38.237C769.061 40.2739 769.462 41.8478 769.462 42.9588C769.462 44.0698 769.091 45.0882 768.351 46.014C767.672 46.8782 766.746 47.3102 765.573 47.3102Z" fill="white"/>
<path d="M831.583 220.437C833.682 220.437 835.626 221.023 837.416 222.196C839.268 223.307 840.193 224.665 840.193 226.27C840.193 226.949 839.977 227.473 839.545 227.843C839.175 228.152 838.681 228.306 838.064 228.306C836.768 228.306 835.04 228.09 832.879 227.658C832.447 227.597 831.614 227.473 830.38 227.288C829.145 227.103 828.127 227.01 827.324 227.01C825.473 227.01 823.683 227.257 821.955 227.751C820.288 228.183 819.084 228.584 818.344 228.955C815.813 230.312 813.529 233.028 811.493 237.102C809.517 241.176 807.974 245.681 806.863 250.619C805.814 255.557 805.289 259.877 805.289 263.581C805.289 269.815 806.339 274.197 808.437 276.728C810.598 279.196 813.838 280.431 818.159 280.431L820.751 280.246C822.603 279.999 824.022 279.875 825.01 279.875C829.454 279.875 831.676 280.956 831.676 283.116C831.676 284.721 830.41 285.801 827.88 286.356C825.411 286.85 822.911 287.097 820.381 287.097C815.258 287.097 811.215 286.264 808.252 284.597C805.351 282.931 803.284 280.4 802.049 277.005C800.815 273.611 800.197 269.167 800.197 263.673C800.197 256.637 801.555 250.002 804.271 243.768C807.049 237.472 810.536 232.318 814.733 228.306L813.992 228.492C812.264 228.862 809.795 229.695 806.586 230.991C803.438 232.226 799.395 233.892 794.457 235.991L790.476 237.657C789.982 237.904 788.902 238.46 787.236 239.324C786.063 239.941 785.137 240.404 784.458 240.713C783.779 241.021 783.069 241.176 782.329 241.176C780.786 241.176 779.119 240.466 777.329 239.046C775.601 237.626 774.274 236.207 773.348 234.787C773.04 234.355 772.885 233.985 772.885 233.676C772.885 233.429 772.978 233.213 773.163 233.028C773.348 232.843 773.564 232.75 773.811 232.75C774.181 232.75 774.583 232.874 775.015 233.121C775.138 233.182 775.663 233.491 776.589 234.047C777.514 234.54 778.656 234.787 780.014 234.787C780.323 234.787 780.847 234.726 781.588 234.602C781.773 234.54 783.656 233.923 787.236 232.75C794.149 230.405 800.475 228.399 806.215 226.732C812.017 225.004 817.356 223.832 822.232 223.214C823.158 223.091 824.053 222.875 824.917 222.566C825.781 222.196 826.337 221.949 826.584 221.826C828.435 220.9 830.102 220.437 831.583 220.437ZM856.581 219.418C856.025 219.418 855.439 219.233 854.822 218.863C854.266 218.431 853.803 217.814 853.433 217.011C852.692 215.406 851.89 214.141 851.026 213.215C850.223 212.228 849.082 211.271 847.6 210.345C847.23 210.098 846.829 209.882 846.397 209.697C846.026 209.45 845.687 209.234 845.378 209.049C845.131 208.802 845.008 208.555 845.008 208.308C845.008 207.938 845.378 207.753 846.119 207.753C847.477 207.753 849.205 208.123 851.304 208.864C853.464 209.543 855.346 210.561 856.951 211.919C858.618 213.215 859.451 214.758 859.451 216.548C859.451 217.598 859.142 218.338 858.525 218.77C857.97 219.202 857.321 219.418 856.581 219.418ZM846.397 225.436C845.779 225.436 845.131 225.251 844.452 224.881C843.773 224.449 843.28 223.77 842.971 222.844C842.354 221.054 841.582 219.542 840.656 218.307C839.792 217.011 838.62 215.9 837.138 214.974C836.953 214.851 836.644 214.666 836.212 214.419C835.842 214.172 835.564 213.956 835.379 213.771C835.194 213.586 835.101 213.4 835.101 213.215C835.101 212.783 835.41 212.567 836.027 212.567C836.706 212.567 838.157 212.938 840.379 213.678C842.662 214.419 844.73 215.499 846.582 216.919C848.495 218.338 849.452 220.097 849.452 222.196C849.452 223.245 849.143 224.048 848.526 224.603C847.909 225.159 847.199 225.436 846.397 225.436Z" fill="white"/>
<path d="M774.796 174.711C773.87 174.711 773.407 174.464 773.407 173.97C773.407 173.476 773.839 173.168 774.703 173.044C782.171 172.365 788.961 170.575 795.071 167.674C801.244 164.712 806.089 161.07 809.607 156.749C813.125 152.429 814.884 147.892 814.884 143.14C814.884 139.498 814.051 136.412 812.385 133.881C810.78 131.289 808.681 129.345 806.089 128.048C803.497 126.752 800.812 126.104 798.034 126.104C794.331 126.104 790.473 127.03 786.461 128.882C782.511 130.733 779.487 132.4 777.388 133.881C775.351 135.363 772.697 137.369 769.426 139.899C768.994 140.208 768.068 140.948 766.648 142.121C765.229 143.294 763.809 144.281 762.389 145.084C760.97 145.825 759.674 146.195 758.501 146.195C757.02 146.195 755.415 145.701 753.687 144.714C752.02 143.664 750.57 142.615 749.335 141.566C748.286 140.702 747.761 140.023 747.761 139.529C747.761 139.035 748.162 138.788 748.965 138.788C749.397 138.788 750.261 138.881 751.557 139.066C752.915 139.189 753.872 139.251 754.427 139.251C756.341 139.251 758.223 138.788 760.075 137.862C761.927 136.936 764.395 135.486 767.482 133.511C770.753 131.412 773.685 129.684 776.277 128.326C778.931 126.907 782.048 125.703 785.628 124.715C789.208 123.666 793.127 123.142 797.386 123.142C801.521 123.142 805.41 124.098 809.052 126.012C812.693 127.863 815.594 130.487 817.754 133.881C819.976 137.214 821.087 141.01 821.087 145.269C821.087 148.479 820.131 152.089 818.217 156.101C816.304 160.052 811.922 163.94 805.07 167.767C798.219 171.532 788.128 173.846 774.796 174.711Z" fill="white"/>
<path d="M864.389 381.471C871.055 384.433 876.239 388.353 879.943 393.229C883.708 398.043 885.59 403.043 885.59 408.227C885.59 411.869 884.633 415.079 882.72 417.856C880.868 420.634 878.4 422.763 875.313 424.244C872.227 425.726 868.925 426.466 865.407 426.466C859.173 426.466 854.76 424.553 852.168 420.726C849.637 416.838 848.372 411.776 848.372 405.542C848.372 402.888 848.402 400.913 848.464 399.617C846.304 398.876 844.545 397.951 843.187 396.84C841.891 395.667 841.243 394.278 841.243 392.673C841.243 389.093 844.36 384.526 850.594 378.971C851.149 375.7 851.705 372.737 852.26 370.083C850.162 369.219 848.186 368.262 846.335 367.213C844.545 366.164 843.218 365.207 842.354 364.343C842.23 364.219 842.045 364.034 841.798 363.787C841.551 363.54 841.428 363.324 841.428 363.139C841.428 362.769 841.613 362.584 841.983 362.584C842.107 362.584 842.539 362.707 843.28 362.954C844.761 363.51 846.643 364.003 848.927 364.435C851.273 364.867 852.692 365.145 853.186 365.269C853.988 361.133 854.39 357.893 854.39 355.547C854.39 353.387 854.05 351.505 853.371 349.9C852.692 348.357 851.952 347.184 851.149 346.382C850.779 346.011 850.594 345.703 850.594 345.456C850.594 345.024 850.933 344.808 851.612 344.808C852.291 344.808 853.124 345.024 854.112 345.456C855.099 345.888 856.025 346.474 856.889 347.215C859.111 349.067 860.222 351.134 860.222 353.418C860.222 354.159 860.099 354.961 859.852 355.825C859.605 356.689 859.204 357.831 858.648 359.251C857.846 361.288 857.105 363.51 856.426 365.917C858.587 366.411 860.469 366.966 862.074 367.583C863.247 368.077 864.111 368.787 864.666 369.713C865.284 370.638 865.592 371.533 865.592 372.398C865.592 373.138 865.345 373.755 864.851 374.249C864.358 374.743 863.802 375.021 863.185 375.082C859.975 375.329 856.828 376.44 853.741 378.416C852.63 384.526 851.921 390.143 851.612 395.266L852.538 395.358C854.328 395.605 856.642 395.729 859.482 395.729C861.21 395.729 862.568 395.945 863.555 396.377C864.543 396.809 865.037 397.673 865.037 398.969C865.037 400.08 864.543 400.79 863.555 401.098C862.629 401.407 861.549 401.561 860.315 401.561C857.599 401.561 854.636 401.191 851.427 400.45V401.376C851.427 407.734 852.322 412.641 854.112 416.097C855.963 419.553 859.543 421.282 864.851 421.282C867.567 421.282 870.036 420.695 872.258 419.523C874.48 418.288 876.239 416.529 877.535 414.245C878.893 411.962 879.572 409.308 879.572 406.283C879.572 402.271 878.06 398.105 875.036 393.784C872.011 389.402 868.154 385.637 863.463 382.489C862.722 381.995 862.352 381.594 862.352 381.286C862.352 381.1 862.506 381.008 862.815 381.008C863.247 381.008 863.771 381.162 864.389 381.471ZM855.223 371.287L854.667 374.064L854.204 376.101C855.068 375.484 855.871 374.866 856.612 374.249C857.352 373.57 857.723 373.077 857.723 372.768C857.723 372.521 857.537 372.305 857.167 372.12C856.797 371.873 856.426 371.719 856.056 371.657C855.747 371.533 855.531 371.441 855.408 371.379L855.223 371.287ZM844.576 390.729C844.576 392.396 845.964 393.661 848.742 394.525C849.051 390.575 849.544 386.131 850.223 381.193C848.495 382.798 847.106 384.495 846.057 386.285C845.069 388.075 844.576 389.556 844.576 390.729Z" fill="white"/>
<path d="M170.197 76.9369C164.395 76.9369 159.272 75.8259 154.828 73.6039C150.446 71.3819 148.255 67.2774 148.255 61.2903C148.255 56.476 149.582 52.4949 152.236 49.347C154.952 46.1992 158.192 43.4525 161.957 41.1071C159.488 39.3789 157.729 37.4037 156.68 35.1817C155.692 32.9597 155.199 30.1205 155.199 26.6641C155.199 23.5162 155.631 19.9672 156.495 16.0169C157.174 12.9308 157.513 10.3076 157.513 8.14735C157.513 6.78946 157.359 5.67846 157.05 4.81434C156.742 3.95023 156.217 3.14784 155.476 2.40717C155.044 1.97511 154.612 1.60478 154.18 1.29617C153.81 0.925833 153.625 0.678941 153.625 0.555498C153.625 0.185165 154.057 0 154.921 0C155.538 0 156.279 0.123443 157.143 0.370329C158.007 0.555497 158.748 0.802387 159.365 1.111C160.97 1.91339 162.081 2.83923 162.698 3.88851C163.377 4.93779 163.716 6.3574 163.716 8.14735C163.716 9.19663 163.593 10.2459 163.346 11.2952C163.099 12.2827 162.821 13.2394 162.513 14.1653C162.204 15.0294 161.988 15.6158 161.865 15.9244C161.803 16.1095 161.556 16.7885 161.124 17.9612C160.507 19.3191 160.044 20.677 159.735 22.0349C159.427 23.3311 159.272 24.9667 159.272 26.9418C159.272 28.7318 159.55 30.4908 160.106 32.2191C160.723 33.8856 161.494 35.2743 162.42 36.3853C163.346 37.4346 164.303 37.9593 165.29 37.9593C165.969 37.9593 166.895 37.7432 168.068 37.3112C169.24 36.8791 170.413 36.3853 171.586 35.8298C174.055 34.6571 175.69 34.0707 176.493 34.0707C177.666 34.0707 178.807 34.4411 179.918 35.1817C181.091 35.8607 181.678 36.5705 181.678 37.3112C181.678 38.4222 181.245 39.2246 180.381 39.7183C179.517 40.2121 178.159 40.6133 176.308 40.9219C170.814 41.9095 165.506 43.7303 160.383 46.3843C155.26 49.0384 152.699 53.5133 152.699 59.809C152.699 63.0185 153.872 65.7034 156.217 67.8637C158.563 70.024 162.081 71.1042 166.772 71.1042C168.376 71.1042 169.981 70.9807 171.586 70.7338C173.191 70.4869 174.147 70.3326 174.456 70.2709C177.295 69.7771 179.301 69.5302 180.474 69.5302C183.93 69.5302 185.659 70.5486 185.659 72.5855C185.659 74.0051 184.27 75.0852 181.492 75.8259C178.715 76.5666 174.95 76.9369 170.197 76.9369ZM193.899 12.7765C192.788 12.7765 191.738 12.2519 190.751 11.2026C189.516 9.78299 188.405 8.70285 187.418 7.96218C186.43 7.22151 185.103 6.57343 183.437 6.01793C183.005 5.89448 182.542 5.77104 182.048 5.64759C181.616 5.52415 181.215 5.4007 180.844 5.27726C180.536 5.09209 180.381 4.87606 180.381 4.62917C180.443 3.95023 181.894 3.61075 184.733 3.61075C187.387 3.61075 190.041 4.16626 192.695 5.27726C195.349 6.32654 196.676 7.93132 196.676 10.0916C196.676 10.9557 196.367 11.6347 195.75 12.1284C195.133 12.5605 194.516 12.7765 193.899 12.7765ZM185.011 20.8313C184.393 20.8313 183.776 20.677 183.159 20.3684C182.603 20.0598 182.14 19.566 181.77 18.887C180.844 17.2823 179.826 15.9244 178.715 14.8134C177.604 13.7024 176.215 12.8382 174.549 12.221C173.993 12.0359 173.468 11.8198 172.975 11.5729C172.481 11.3261 172.234 11.0483 172.234 10.7397C172.234 10.2459 172.851 9.99902 174.086 9.99902C175.505 9.99902 177.295 10.2459 179.456 10.7397C181.678 11.1717 183.653 12.005 185.381 13.2394C187.171 14.4122 188.066 16.017 188.066 18.0538C188.066 18.9796 187.757 19.6894 187.14 20.1832C186.523 20.6153 185.813 20.8313 185.011 20.8313Z" fill="white"/>
<path d="M58.698 213.238C60.7965 213.238 62.7408 213.825 64.5307 214.997C66.3824 216.108 67.3082 217.466 67.3082 219.071C67.3082 219.75 67.0922 220.275 66.6601 220.645C66.2898 220.954 65.796 221.108 65.1788 221.108C63.8826 221.108 62.1544 220.892 59.9941 220.46C59.5621 220.398 58.7288 220.275 57.4944 220.09C56.2599 219.904 55.2415 219.812 54.4391 219.812C52.5875 219.812 50.7975 220.059 49.0693 220.552C47.4028 220.985 46.1992 221.386 45.4585 221.756C42.9279 223.114 40.6442 225.83 38.6073 229.903C36.6322 233.977 35.0892 238.483 33.9782 243.421C32.9289 248.358 32.4042 252.679 32.4042 256.382C32.4042 262.616 33.4535 266.999 35.5521 269.529C37.7124 271.998 40.9528 273.233 45.2733 273.233L47.8657 273.047C49.7174 272.8 51.137 272.677 52.1245 272.677C56.5685 272.677 58.7906 273.757 58.7906 275.917C58.7906 277.522 57.5252 278.602 54.9946 279.158C52.5257 279.652 50.026 279.899 47.4954 279.899C42.3724 279.899 38.3296 279.065 35.3669 277.399C32.466 275.732 30.3983 273.202 29.1638 269.807C27.9294 266.412 27.3121 261.968 27.3121 256.475C27.3121 249.439 28.67 242.803 31.3858 236.569C34.1633 230.274 37.6506 225.12 41.8478 221.108L41.1071 221.293C39.3789 221.663 36.91 222.497 33.7004 223.793C30.5526 225.027 26.5098 226.694 21.572 228.792L17.5909 230.459C17.0971 230.706 16.017 231.261 14.3505 232.125C13.1777 232.743 12.2519 233.206 11.5729 233.514C10.894 233.823 10.1842 233.977 9.44352 233.977C7.90046 233.977 6.23396 233.267 4.44401 231.848C2.71578 230.428 1.38875 229.008 0.462918 227.589C0.154306 227.157 0 226.786 0 226.478C0 226.231 0.0925835 226.015 0.27775 225.83C0.462918 225.645 0.678946 225.552 0.925836 225.552C1.29617 225.552 1.69736 225.675 2.12942 225.922C2.25287 225.984 2.77751 226.293 3.70334 226.848C4.62918 227.342 5.77104 227.589 7.12893 227.589C7.43754 227.589 7.96218 227.527 8.70285 227.404C8.88802 227.342 10.7706 226.725 14.3505 225.552C21.2634 223.207 27.5899 221.201 33.3301 219.534C39.132 217.806 44.471 216.633 49.347 216.016C50.2729 215.892 51.1678 215.676 52.0319 215.368C52.8961 214.997 53.4516 214.751 53.6985 214.627C55.5501 213.701 57.2166 213.238 58.698 213.238ZM83.6955 212.22C83.14 212.22 82.5537 212.035 81.9364 211.664C81.3809 211.232 80.918 210.615 80.5477 209.813C79.807 208.208 79.0046 206.943 78.1405 206.017C77.3381 205.029 76.1962 204.073 74.7149 203.147C74.3446 202.9 73.9434 202.684 73.5113 202.499C73.141 202.252 72.8015 202.036 72.4929 201.851C72.246 201.604 72.1226 201.357 72.1226 201.11C72.1226 200.74 72.4929 200.554 73.2336 200.554C74.5915 200.554 76.3197 200.925 78.4183 201.665C80.5785 202.344 82.4611 203.363 84.0658 204.721C85.7324 206.017 86.5656 207.56 86.5656 209.35C86.5656 210.399 86.257 211.14 85.6398 211.572C85.0843 212.004 84.4362 212.22 83.6955 212.22ZM73.5113 218.238C72.8941 218.238 72.246 218.053 71.5671 217.682C70.8881 217.25 70.3943 216.571 70.0857 215.646C69.4685 213.856 68.697 212.343 67.7711 211.109C66.907 209.813 65.7343 208.702 64.253 207.776C64.0678 207.653 63.7592 207.467 63.3271 207.22C62.9568 206.974 62.6791 206.758 62.4939 206.572C62.3087 206.387 62.2161 206.202 62.2161 206.017C62.2161 205.585 62.5247 205.369 63.142 205.369C63.8209 205.369 65.2714 205.739 67.4934 206.48C69.7771 207.22 71.8448 208.301 73.6965 209.72C75.6099 211.14 76.5666 212.899 76.5666 214.997C76.5666 216.047 76.258 216.849 75.6407 217.405C75.0235 217.96 74.3137 218.238 73.5113 218.238Z" fill="white"/>
<path d="M105.684 135.177C105.375 135.177 105.221 135.054 105.221 134.807C105.221 134.498 105.406 134.159 105.777 133.789C106.826 132.739 108.184 131.536 109.85 130.178C110.838 129.314 111.733 128.511 112.535 127.771C113.338 127.03 113.739 126.567 113.739 126.382C113.739 125.703 112.473 125.148 109.943 124.715C107.721 124.283 105.591 123.388 103.555 122.031C101.518 120.611 99.9747 119.284 98.9254 118.049C98.6785 117.741 98.4317 117.37 98.1848 116.938C97.9996 116.506 97.907 116.136 97.907 115.827C97.907 115.581 97.9687 115.457 98.0922 115.457L98.4625 115.55C98.6477 115.673 98.9254 115.858 99.2958 116.105C99.7278 116.29 100.314 116.568 101.055 116.938C102.536 117.679 104.388 118.296 106.61 118.79C108.832 119.284 110.807 119.531 112.535 119.531C114.202 119.531 116.115 119.376 118.275 119.068C120.497 118.821 122.04 118.698 122.905 118.698C123.645 118.698 124.293 118.79 124.849 118.975C125.775 119.284 126.67 119.932 127.534 120.92C128.398 121.845 128.83 122.864 128.83 123.975C128.83 124.715 128.49 125.271 127.811 125.641C127.194 126.012 125.775 126.32 123.553 126.567C118.43 127.246 112.936 129.9 107.073 134.529C106.456 134.961 105.993 135.177 105.684 135.177ZM115.128 178.321C110.745 178.321 106.702 177.951 102.999 177.21C99.3575 176.408 96.4257 175.143 94.2037 173.414C91.3644 171.192 89.9448 168.137 89.9448 164.249C89.9448 162.52 90.13 161.101 90.5003 159.99C90.8707 158.817 91.241 158.231 91.6113 158.231C92.1051 158.231 92.352 158.817 92.352 159.99V161.379C92.352 165.205 94.6049 167.983 99.1106 169.711C102.073 170.822 105.715 171.378 110.035 171.378C113.554 171.378 118.461 170.853 124.756 169.804C128.398 169.248 130.743 168.97 131.793 168.97C133.397 168.97 134.601 169.279 135.403 169.896C136.267 170.513 136.7 171.347 136.7 172.396C136.7 174.124 135.156 175.451 132.07 176.377C130.219 176.933 127.75 177.395 124.664 177.766C121.639 178.136 118.461 178.321 115.128 178.321Z" fill="white"/>
<path d="M43.514 362.275C50.1801 365.238 55.3647 369.157 59.0681 374.033C62.8331 378.848 64.7157 383.847 64.7157 389.032C64.7157 392.673 63.759 395.883 61.8456 398.66C59.9939 401.438 57.525 403.567 54.4389 405.049C51.3528 406.53 48.0506 407.271 44.5325 407.271C38.2985 407.271 33.8854 405.357 31.293 401.531C28.7624 397.642 27.4971 392.581 27.4971 386.347C27.4971 383.693 27.528 381.718 27.5897 380.421C25.4294 379.681 23.6703 378.755 22.3124 377.644C21.0163 376.471 20.3682 375.082 20.3682 373.478C20.3682 369.898 23.4851 365.33 29.7191 359.775C30.2746 356.504 30.8301 353.541 31.3856 350.887C29.287 350.023 27.3119 349.066 25.4603 348.017C23.6703 346.968 22.3433 346.011 21.4792 345.147C21.3557 345.024 21.1706 344.839 20.9237 344.592C20.6768 344.345 20.5533 344.129 20.5533 343.944C20.5533 343.573 20.7385 343.388 21.1088 343.388C21.2323 343.388 21.6643 343.511 22.405 343.758C23.8863 344.314 25.7689 344.808 28.0526 345.24C30.398 345.672 31.8177 345.95 32.3114 346.073C33.1138 341.938 33.515 338.697 33.515 336.352C33.515 334.191 33.1756 332.309 32.4966 330.704C31.8177 329.161 31.077 327.988 30.2746 327.186C29.9043 326.816 29.7191 326.507 29.7191 326.26C29.7191 325.828 30.0586 325.612 30.7375 325.612C31.4165 325.612 32.2497 325.828 33.2373 326.26C34.2248 326.692 35.1507 327.279 36.0148 328.019C38.2368 329.871 39.3478 331.939 39.3478 334.222C39.3478 334.963 39.2243 335.765 38.9775 336.629C38.7306 337.494 38.3294 338.635 37.7739 340.055C36.9715 342.092 36.2308 344.314 35.5519 346.721C37.7121 347.215 39.5947 347.77 41.1995 348.388C42.3722 348.881 43.2363 349.591 43.7918 350.517C44.409 351.443 44.7176 352.338 44.7176 353.202C44.7176 353.943 44.4707 354.56 43.977 355.054C43.4832 355.547 42.9277 355.825 42.3105 355.887C39.1009 356.134 35.9531 357.245 32.8669 359.22C31.7559 365.33 31.0461 370.947 30.7375 376.07L31.6634 376.163C33.4533 376.409 35.7679 376.533 38.6071 376.533C40.3353 376.533 41.6932 376.749 42.6808 377.181C43.6684 377.613 44.1621 378.477 44.1621 379.773C44.1621 380.884 43.6684 381.594 42.6808 381.903C41.755 382.211 40.6748 382.366 39.4404 382.366C36.7246 382.366 33.7619 381.995 30.5524 381.255V382.181C30.5524 388.538 31.4473 393.445 33.2373 396.901C35.0889 400.358 38.6688 402.086 43.977 402.086C46.6928 402.086 49.1616 401.5 51.3836 400.327C53.6057 399.092 55.3647 397.333 56.6609 395.05C58.0188 392.766 58.6978 390.112 58.6978 387.087C58.6978 383.076 57.1856 378.909 54.1612 374.589C51.1368 370.206 47.2791 366.441 42.5882 363.294C41.8475 362.8 41.4772 362.399 41.4772 362.09C41.4772 361.905 41.6315 361.812 41.9401 361.812C42.3722 361.812 42.8968 361.966 43.514 362.275ZM34.3483 352.091L33.7928 354.868L33.3299 356.905C34.194 356.288 34.9964 355.671 35.737 355.054C36.4777 354.375 36.848 353.881 36.848 353.572C36.848 353.325 36.6629 353.109 36.2925 352.924C35.9222 352.677 35.5519 352.523 35.1815 352.461C34.8729 352.338 34.6569 352.245 34.5334 352.183L34.3483 352.091ZM23.7012 371.533C23.7012 373.2 25.0899 374.465 27.8674 375.329C28.176 371.379 28.6698 366.935 29.3488 361.997C27.6205 363.602 26.2318 365.299 25.1825 367.089C24.1949 368.879 23.7012 370.361 23.7012 371.533Z" fill="white"/>
</svg>
